<?xml version="1.0" encoding="utf-8"?>
<!-- Generator: Adobe Illustrator 16.0.3, SVG Export Plug-In . SVG Version: 6.00 Build 0)  -->
<!DOCTYPE svg PUBLIC "-//W3C//DTD SVG 1.1//EN" "http://www.w3.org/Graphics/SVG/1.1/DTD/svg11.dtd">
<svg version="1.1" id="Layer_1" xmlns="http://www.w3.org/2000/svg" xmlns:xlink="http://www.w3.org/1999/xlink" x="0px" y="0px"
	 width="50px" height="50px" viewBox="0 0 50 50" enable-background="new 0 0 50 50" xml:space="preserve">
<g>
	<path fill="#C23D27" d="M14.935,32.792c-2.969,0-5.55-0.203-8.087,0.043c-4.052,0.392-7.917-4.403-5.316-9.265
		c0.374-0.703,0.416-1.599,0.562-2.413c0.276-1.511,0.521-3.021,0.764-4.535c0.085-0.531,0.132-1.067,0.218-1.598
		c0.192-1.226,0.299-2.475,0.611-3.664c0.395-1.47,1.082-2.868,1.416-4.346c0.681-3.036,2.979-4.994,6.558-5.204
		c4.934-0.287,9.78,0.178,14.492,1.832c2.24,0.786,4.602,1.246,6.82,2.083c0.695,0.263,1.58,1.252,1.594,1.925
		c0.122,6.419,0.106,12.839,0.011,19.261c-0.009,0.615-0.753,1.324-1.307,1.807c-0.881,0.762-2.058,1.22-2.822,2.067
		c-2.233,2.472-4.359,5.045-6.445,7.641c-0.532,0.662-0.854,1.533-1.112,2.354c-0.337,1.073-0.542,2.197-0.755,3.306
		c-0.517,2.632-1.685,4.103-3.378,4.172c-2.847,0.126-5.354-1.446-5.998-3.913c-0.74-2.809-0.697-5.591,0.655-8.261
		C13.881,35.146,14.298,34.174,14.935,32.792z"/>
	<path fill="#C23D27" d="M36.803,17.133c0-3.018,0.034-6.035-0.015-9.053c-0.028-1.77,0.813-2.518,2.512-2.508
		c2.515,0.014,5.029,0.034,7.544-0.006c1.666-0.024,2.453,0.823,2.457,2.403c0.022,6.157,0.008,12.319,0.012,18.481
		c0.001,1.652-0.896,2.408-2.465,2.426c-2.516,0.03-5.029,0-7.544,0.014c-1.699,0.008-2.536-0.755-2.513-2.519
		C36.834,23.295,36.803,20.215,36.803,17.133z M44.049,9.068c-0.288-0.009-0.574-0.022-0.859-0.032
		c-0.577,0.761-1.659,1.581-1.582,2.269c0.089,0.762,1.152,1.791,1.947,1.962c0.502,0.11,1.76-1.1,1.834-1.8
		C45.464,10.721,44.541,9.875,44.049,9.068z"/>
</g>
</svg>
