<svg version="1.1" id="Layer_1" xmlns="http://www.w3.org/2000/svg" xmlns:xlink="http://www.w3.org/1999/xlink" x="0px" y="0px"
	 width="400px" height="400px" viewBox="0 0 400 400" enable-background="new 0 0 400 400" xml:space="preserve">
<path fill-rule="evenodd" clip-rule="evenodd" fill="#FFFFFF" d="M208.754,351.5c-5.837,0-11.671,0-17.506,0
	c-3.964-0.553-7.951-0.975-11.887-1.68c-61.313-10.961-103.104-45.242-123.244-104.496c-3.977-11.701-5.15-24.355-7.616-36.57
	c0-5.836,0-11.672,0-17.507c0.551-3.945,0.972-7.914,1.671-11.833C61.12,118.103,95.365,76.284,154.628,56.141
	c11.718-3.982,24.387-5.166,36.619-7.641c5.835,0,11.669,0,17.506,0c3.964,0.554,7.951,0.976,11.887,1.679
	c61.313,10.961,103.105,45.242,123.244,104.497c3.977,11.702,5.15,24.355,7.615,36.57c0,5.835,0,11.671,0,17.507
	c-0.551,3.945-0.971,7.914-1.671,11.832c-10.948,61.311-45.193,103.129-104.456,123.273
	C233.653,347.842,220.983,349.025,208.754,351.5z M294.661,272.67c36.209-45.07,34.812-117.027-14.629-161.633
	c-46.595-42.04-113.422-38.344-152.566-5.563C183.111,161.119,238.78,216.787,294.661,272.67z M105.208,127.576
	C69.941,170.932,70.355,241.631,117.4,286.564c45.794,43.74,114.179,41.932,154.968,8.176
	C216.756,239.127,161.11,183.479,105.208,127.576z"/>
</svg>
