<?xml version="1.0" encoding="utf-8"?>
<!-- Generator: Adobe Illustrator 16.0.3, SVG Export Plug-In . SVG Version: 6.00 Build 0)  -->
<!DOCTYPE svg PUBLIC "-//W3C//DTD SVG 1.1//EN" "http://www.w3.org/Graphics/SVG/1.1/DTD/svg11.dtd">
<svg version="1.1" id="Layer_1" xmlns="http://www.w3.org/2000/svg" xmlns:xlink="http://www.w3.org/1999/xlink" x="0px" y="0px"
	 width="50px" height="50px" viewBox="0 0 50 50" enable-background="new 0 0 50 50" xml:space="preserve">
<g>
	<path fill="#057A70" d="M35.063,17.217c2.969,0,5.55,0.203,8.085-0.046c4.051-0.392,7.918,4.404,5.314,9.263
		c-0.373,0.704-0.416,1.601-0.563,2.413c-0.272,1.509-0.515,3.021-0.759,4.533c-0.089,0.529-0.136,1.068-0.217,1.597
		c-0.194,1.225-0.304,2.472-0.616,3.663c-0.387,1.471-1.082,2.866-1.414,4.346c-0.678,3.034-2.978,4.994-6.555,5.201
		c-4.932,0.289-9.779-0.175-14.489-1.833c-2.239-0.785-4.597-1.244-6.82-2.081c-0.696-0.261-1.58-1.251-1.591-1.924
		c-0.123-6.415-0.107-12.84-0.014-19.259c0.011-0.617,0.753-1.325,1.313-1.806c0.877-0.763,2.055-1.222,2.817-2.067
		c2.231-2.475,4.356-5.046,6.443-7.643c0.531-0.661,0.854-1.535,1.114-2.358c0.337-1.072,0.539-2.193,0.755-3.302
		c0.514-2.634,1.684-4.101,3.375-4.174c2.851-0.125,5.351,1.446,6.003,3.91c0.737,2.81,0.694,5.595-0.657,8.264
		C36.113,14.861,35.698,15.834,35.063,17.217z"/>
	<path fill="#057A70" d="M13.2,32.871c0,3.019-0.034,6.031,0.015,9.051c0.028,1.768-0.815,2.518-2.513,2.507
		c-2.51-0.012-5.026-0.031-7.543,0.005c-1.664,0.022-2.45-0.823-2.456-2.401c-0.02-6.157-0.007-12.316-0.01-18.479
		c0-1.652,0.895-2.407,2.461-2.427c2.514-0.027,5.028,0,7.543-0.011c1.698-0.006,2.537,0.756,2.514,2.519
		C13.169,26.712,13.2,29.792,13.2,32.871z M5.957,40.935c0.286,0.009,0.575,0.023,0.86,0.035c0.569-0.765,1.658-1.584,1.578-2.271
		c-0.085-0.763-1.15-1.791-1.949-1.964c-0.497-0.106-1.76,1.102-1.831,1.799C4.538,39.284,5.467,40.128,5.957,40.935z"/>
</g>
</svg>
