<?xml version="1.0" encoding="utf-8"?>
<!-- Generator: Adobe Illustrator 16.0.3, SVG Export Plug-In . SVG Version: 6.00 Build 0)  -->
<!DOCTYPE svg PUBLIC "-//W3C//DTD SVG 1.1//EN" "http://www.w3.org/Graphics/SVG/1.1/DTD/svg11.dtd">
<svg version="1.1" id="Layer_1" xmlns="http://www.w3.org/2000/svg" xmlns:xlink="http://www.w3.org/1999/xlink" x="0px" y="0px"
	 width="818.753px" height="822.24px" viewBox="0 0 818.753 822.24" enable-background="new 0 0 818.753 822.24"
	 xml:space="preserve">
<g>
	<path fill="#FFFFFF" d="M652.005,196.276c-3.801,6.418-8.223,12.578-13.09,18.235c-20.521,23.853-41.324,47.465-61.996,71.188
		c-7.82,8.977-15.57,18.016-23.391,27.071c-0.221-0.365-0.49-0.609-0.508-0.871c-1.637-23.717-21.051-39.705-46.727-32.597
		c-3.031,0.84-6.135,1.586-9.254,1.9c-2.75,0.277-5.723,0.341-6.879-3.26c-5.006-15.574-16.832-23.956-31.453-28.892
		c-12.705-4.288-25.656-7.981-37.958,1.459c-0.125,0.096-0.313,0.107-0.467,0.169c-7.137,2.85-9.998,1.419-11.848-6.063
		c-2.51-10.16-8.26-17.875-18.648-20.033c-11.654-2.422-23.607-3.427-35.45-4.897c-1.139-0.142-2.69,0.469-3.578,1.261
		c-7.923,7.059-17.08,13.242-23.286,21.604c-10.475,14.111-19.494,29.375-28.278,44.641c-5.336,9.272-11.5,17.89-13.434,29.417
		c-2.351,14.005-8.511,27.371-13.314,41.898c-1.615-1.871-2.49-2.771-3.235-3.766c-12.565-16.797-24.749-33.896-37.776-50.326
		c-11.977-15.106-23.829-30.557-37.605-43.929c-17.002-16.502-38.266-23.63-62.338-19.875c-15.846,2.473-22.91,8.849-26.128,23.326
		c-0.421,1.896-0.926,3.771-1.392,5.656c0,1.333,0,2.667,0,4c3.49,3.388,6.743,7.081,10.555,10.06
		c2.703,2.112,6.01,3.764,9.307,4.749c13.043,3.895,20.73,13.129,25.957,25.024c0.602,1.37,1.322,2.688,1.952,4.046
		c11.871,25.609,20.356,52.639,34.458,77.381c10.882,19.096,16.591,40.559,22.377,61.781c1.371,5.029,3.041,10.246,5.822,14.574
		c9.447,14.697,19.518,28.992,29.234,43.518c16.965,25.365,34.233,50.502,57.098,71.09c4.657,4.191,7.385,9.186,7.969,15.037
		c0.756,7.578,0.838,15.26,0.679,22.887c-0.239,11.473-1.155,22.934-1.282,34.406c-0.03,2.678,1.404,5.795,3.091,8.002
		c13.983,18.297,31.966,32.42,49.427,47.113c5.553,4.674,11.538,7.674,18.645,8.68c5.911,0.836,11.809,1.766,17.712,2.652
		c7,0,14,0,21,0c3.254-0.455,6.503-0.926,9.759-1.365c24.352-3.285,46.977-11.713,68.787-22.744
		c3.625-1.836,5.686-4.158,6.387-8.053c3.328-18.445,6.674-36.889,10.127-55.313c0.842-4.49,0.85-9.867,3.391-13.191
		c20.836-27.27,34.77-57.91,43.771-90.676c13.805-50.252,26.533-100.799,39.826-151.189c1.332-5.051,2.256-10.83,5.344-14.693
		c21.197-26.518,43.096-52.474,64.42-78.892c17.803-22.057,27.24-47.342,27.57-75.865c0.082-7.244-1.008-14.396-6.676-19.112
		c-4.553-3.789-10.422-5.997-15.707-8.906c-2.666,0-5.332,0-8,0C659.905,185.839,655.587,190.229,652.005,196.276z M489.872,296.988
		c0.656-3.87,2.268-6.139,5.891-7.693c14.814-6.354,28.916-5.962,41.643,4.599c3.17,2.631,6.201,6.48,7.307,10.339
		c2.742,9.561,4.102,19.278,1.299,29.409c-8.32,30.092-16.113,60.356-28.238,89.208c-8.49,20.203-27.68,35.529-49.064,39.844
		c1.314-14.467-8.264-22.154-18.805-29.295c2.383-5.707,3.67-11.703,9.596-14.811c5.369,8.072,12,14.033,21.738,15.451
		c6.76,0.984,13.502,1.383,19.496-2.766c-6.621-1.969-13.27-3.352-19.41-5.938c-6.25-2.633-11.928-6.59-18-9.684
		c-2.652-1.35-2.529-2.764-1.643-5.178c9.473-25.793,16.211-52.346,21.674-79.236C485.669,319.85,487.931,308.444,489.872,296.988z
		 M453.146,464.242c-4.074-0.51-8.5-4.238-12.113-8.721c-1.098-1.359-1.078-5.639-0.154-6.186c1.846-1.092,4.816-1.09,7.057-0.51
		c3.156,0.816,6.229,2.311,9.025,4.021c1.686,1.029,3.459,2.813,4.01,4.617C462.415,462.205,460.335,464.424,453.146,464.242z
		 M413.849,316.059c0.332-15.645-0.172-31.311-0.438-46.964c-0.166-9.917,9.285-18.868,20.587-17.491
		c13.516,1.647,26.941,4.59,38.109,13.388c0.781,0.615,1.438,1.393,2.227,1.995c8.732,6.666,8.398,15.578,6.637,25.131
		c-5.477,29.71-9.99,59.619-16.303,89.146c-5.244,24.527-19.045,44.793-36.439,62.617c-0.443,0.455-1.025,0.773-1.396,1.049
		c-4.5-8.98-12.359-12.875-21.423-14.363c-9.773-1.605-15.924,6.48-24.985,10.379c6.446-14.439,12.54-28.088,18.794-42.096
		c5.014,2.932,9.541,6.486,14.68,8.363c6.762,2.469,13.966,3.803,21.058,5.252c3.709,0.758,5.229-2.004,6.395-5.938
		c-5.625-1.645-11.205-3.074-16.646-4.916c-6.726-2.279-13.378-4.797-19.98-7.422c-2.763-1.098-3.242-3.162-2.059-6.084
		C412.029,364.982,413.328,340.535,413.849,316.059z M420.357,455.01c-0.152,3.41-1.596,6.928-6.342,7.672
		c-6.035,0.947-11.523,0.307-16.654-3.064c-4.246-2.791-8.521-5.537-12.753-8.285c0.428-1.029,0.513-1.564,0.813-1.908
		c2.918-3.332,5.361-7.43,8.949-9.742c4.473-2.881,7.719,2.338,11.6,3.717c3.586,1.275,7.418,2.393,10.432,4.564
		C418.449,449.436,420.46,452.662,420.357,455.01z M375.875,432.297c-0.453,1.025-1.689,2.379-2.611,2.414
		c-6.604,0.262-13.315,0.818-19.345-2.891c-5.645-3.475-7.578-8.625-5.408-14.389c1.984-5.277,6.338-7.682,12.944-6.313
		c6.92,1.432,13.709,3.492,20.939,5.377C380.049,422.244,378.07,427.318,375.875,432.297z M311.024,282.838
		c10.461-23.894,27.842-41.552,49.896-54.901c1.23-0.745,3.199-0.909,4.639-0.565c8.405,2.008,16.811,4.058,25.109,6.46
		c9.077,2.628,14.688,10.766,14.245,21.09c-0.98,22.793-2.281,45.571-3.451,68.356c-0.572,11.139-1.144,22.278-1.743,33.962
		c-12.312,4.199-24.329-0.461-37.693-2.111c10.624,9.254,22.526,11.573,36.077,12.653c-4.134,12.318-8.109,24.162-12.234,36.449
		c-5.121-1.912-9.588-3.633-14.09-5.252c-7.964-2.859-12.875-1.83-18.159,4.777c-4.65,5.814-8.649,12.15-13.897,19.625
		c-1.735-9.914-4.091-18.549-4.624-27.293c-1.762-28.893-2.913-57.822-4.203-86.741c-0.69-15.465-1.184-30.938-1.767-46.407
		c-0.505-0.091-1.009-0.183-1.513-0.273c-9.484,11.126-5.225,25.676-9.129,38.929c-2.834-5.122-5.58-9.788-7.963-14.633
		C310.006,285.909,310.48,284.079,311.024,282.838z M283.979,366.443c1.773-10.421,4.238-20.79,7.328-30.9
		c2.949-9.646,7.076-18.934,11.056-29.348c9.116,14.563,25.009,25.233,19.427,45.67c-12.352-2.441-17.246-14.498-27.375-20.45
		c-0.563,8.702,4.202,13.721,9.48,18.343c3.879,3.396,8.208,6.287,12.01,9.76c5.022,4.588,8.285,10.08,6.264,17.277
		c-0.299,1.068-1.234,2.605-2.098,2.77c-9.158,1.748-18.348,3.633-27.533-0.012C285.901,376.92,282.801,373.357,283.979,366.443z
		 M323.172,650.441c-0.529-0.002-1.061-0.002-1.59-0.004c0.558-8.832,1.115-17.664,1.59-25.188
		C323.172,632.783,323.172,641.611,323.172,650.441z M324.037,585.615c-10.862-2.023-18.763-9.748-26.497-17.064
		c-18.889-17.871-32.666-39.873-48.217-60.434c-8.237-10.889-16.261-21.945-24.113-33.115c-2.236-3.18-3.975-6.873-5.195-10.578
		c-7.539-22.869-14.588-45.906-22.421-68.672c-2.572-7.477-6.998-14.314-10.828-21.947c2.903-1.473,5.798-2.941,8.8-4.465
		c-1.473-4.877-5.697-3.094-9.313-4.053c1.688-2.06,3.175-3.874,4.65-5.674c-0.472-0.412-0.688-0.771-0.927-0.785
		c-12.864-0.83-12.783-0.856-17.141-12.907c-8.341-23.069-19.592-44.521-36.845-62.23c-6.112-6.273-13.256-11.608-20.303-16.872
		c-2.909-2.174-3.737-4.742-2.222-7.123c2.668-4.19,5.306-8.604,11.329-9.345c30.078-3.699,54.682,7.091,74.645,28.835
		c9.296,10.126,17.093,21.624,25.648,32.438c2.393,3.024,2.682,6.254,0.658,9.24c-3.719,5.486-7.863,10.682-11.789,16.029
		c-3.156,4.299-6.368,8.61-4.241,14.841c6.505,0.211,10.528-3.618,14.04-8.148c4.15-5.358,8.115-10.861,13.143-17.623
		c7.846,10.522,15.115,19.995,22.057,29.701c3.383,4.73,5.895,10.083,9.277,14.813c3.096,4.328,3.578,8.387,1.539,13.324
		c-5.322,12.893-9.959,26.078-15.586,38.83c-2.215,5.021-6.334,9.203-9.899,14.209c6.846-3.047,11.96-7.879,15.168-13.928
		c6.527-12.314,12.206-25.078,18.226-37.662c0.5-1.045,0.93-2.123,1.688-3.871c12.579,10.729,6.866,24.734,8.115,37.436
		c1.348-1.6,2.71-3.217,4.072-4.832c0.584,0.236,1.169,0.475,1.754,0.711c-2.271,10.551-4.541,21.104-7.012,32.578
		c7.872-15.07,11.324-30.332,11.754-46.988c1.686,0.838,2.999,1.398,4.221,2.115c5.6,3.283,11.09,6.762,16.78,9.879
		c5.026,2.754,8.323,6.068,10.722,11.879c2.814,6.814,8.723,12.385,13.519,18.309c0.704,0.869,2.7,1.074,4.053,0.975
		c8.351-0.619,15.331,2.365,21.427,7.807c3.602,3.217,6.827,6.963,10.779,9.652c5.7,3.879,11.642,7.637,17.956,10.328
		c9.924,4.229,17.395,10.973,21.191,20.723c4.683,12.029,8.062,24.572,11.898,36.926c0.303,0.977,0.029,2.328-0.41,3.311
		c-7.342,16.379-13.597,33.279-24.041,48.146c-2.746,3.908-5.445,6.188-10.551,6.832
		C371.628,590.189,347.748,590.029,324.037,585.615z M335.25,672.49c-4.01-13.369-3.426-25.457-2.994-37.541
		c0.34-9.484,0.549-18.975,0.969-28.455c0.063-1.432,0.951-2.828,1.457-4.242c0.895,0.936,1.711,1.961,2.694,2.789
		c6.712,5.654,5.823,13.367,5.29,20.738c-0.909,12.561-2.168,25.102-3.623,37.611C338.735,666.045,336.955,668.529,335.25,672.49z
		 M394.177,706.34c-0.889,1.574-3.455,3.1-5.262,3.119c-19.035,0.215-32.498-9.74-43.421-24.256
		c-3.055-4.059-3.434-7.537-2.256-12.967c2.439-11.254,2.668-23.012,3.485-34.584c0.421-5.967,0.091-11.982,0.218-17.973
		c0.149-6.943,1.436-7.908,7.971-6.412c5.989,1.373,11.955,2.889,17.998,3.971c6.895,1.236,13.208-0.707,18.71-4.871
		c1.66-1.256,2.651-3.398,3.949-5.133c-0.234-0.58-0.469-1.158-0.702-1.736c-15.108,4.422-29.95,5.057-44.322-0.961
		c0-0.477-0.001-0.953-0.002-1.43c1.019-0.148,2.033-0.381,3.056-0.428c16.613-0.762,33.229-1.461,49.84-2.262
		c5.641-0.271,6.896,0.594,6.504,6.266c-0.584,8.443-1.684,16.852-2.365,25.289c-0.961,11.932-1.393,23.916-2.693,35.807
		C403.423,681.166,400.906,694.408,394.177,706.34z M413.712,711.807c-4.236,0-8.277,0-12.521,0
		c11.91-35.406,11.143-72.564,17.26-108.645c0.465-0.025,0.928-0.049,1.391-0.074c0.611,8.861,2.307,17.807,1.635,26.568
		C419.378,656.975,416.388,684.221,413.712,711.807z M423.55,698.6c-0.639-0.055-1.279-0.111-1.919-0.166
		c-1.344-25.762,1.498-51.365,3.169-77.061c4.236-2.23,4.826,0.756,4.842,3.363c0.082,14.258,0.688,28.568-0.344,42.756
		C428.538,677.945,425.548,688.236,423.55,698.6z M496.853,668.695c-1.291,6.508-2.555,13.025-4.115,19.471
		c-0.402,1.662-1.582,4.061-2.895,4.443c-20.064,5.863-40.209,11.447-61.393,17.393c2.686-28.045,5.301-55.361,7.979-83.33
		c21.375,7.891,42.35,15.137,65.178,17.395C499.983,652.498,498.458,660.605,496.853,668.695z M440.411,613.311
		c14.176,6.473,27.088,15.953,42.906,18.598c-0.104,0.506-0.207,1.014-0.311,1.52c-8.264-2.113-16.555-4.125-24.777-6.387
		c-4.137-1.137-8.061-3.172-12.238-4.006C440.333,621.908,438.519,619.045,440.411,613.311z M576.339,434.857
		c-3.576,13.818-7.814,27.463-11.803,41.174c-9.557,32.854-18.564,65.881-28.922,98.479c-4.525,14.24-12.357,27.287-23.15,38.092
		c-7.24,7.246-16.418,8.873-26.205,8.566c-15.475-0.482-28.193-7.902-40.859-15.746c-5.111-3.164-10.801-5.393-16.229-8.045
		c-0.35,0.494-0.697,0.99-1.047,1.486c1.32,4.9,5.91,9.113,3.043,15.643c-7.049-7.66-10.964-16.139-8.635-25.939
		c1.816-7.639,4.418-15.582,8.707-22.033c7.578-11.396,9.137-22.789,7.266-36.24c-2.275-16.361-5.771-31.869-13.85-46.41
		c-5.144-9.26-3.193-14.42,5.852-18.398c5.029,8.438,14.295,7.705,22.406,10.227c10.066,3.131,17.986-0.578,26.275-5.012
		c21.076-11.275,36.875-27.646,47.689-48.863c1.42-2.785,3.041-4.225,6.291-4.621c6.582-0.803,13.092-3.09,19.633-3.1
		c8.623-0.012,16.822,3.367,22.791,9.549C577.612,425.754,577.257,431.311,576.339,434.857z M589.569,386.672
		c-2.254,8.305-5.604,16.33-8.818,24.338c-0.523,1.303-3.109,2.863-4.389,2.6c-7.111-1.477-14.074-3.66-21.168-5.25
		c-6.514-1.461-13.127-2.477-19.609-3.672c5.943-10.205,12.516-21.486,18.049-30.988c-3.018,2.727-7.502,6.777-12.838,11.598
		c1.359-14.787,10.381-25.025,15.941-37.519c-2.207,0.506-3.711,0.85-5.992,1.372c0.822-4.701,1.527-8.737,2.479-14.175
		c9.438,7.25,17.662,14.565,26.84,20.378C592.681,363.346,592.864,374.529,589.569,386.672z M618.03,337.934
		c-7.385,8.08-15.572,15.425-23.859,23.527c-10.596-12.579-20.799-24.691-31.621-37.538c8.912-12.199,18.688-25.589,28.486-38.964
		c0.385-0.524,0.934-1.237,1.465-1.292c2.373-0.243,5.068-0.978,7.045-0.13c1.203,0.517,1.344,3.58,1.896,5.518
		c0.934,3.28,1.34,6.813,2.846,9.8c1.756,3.488,4.451,6.505,6.74,9.726c0.582-0.26,1.166-0.52,1.75-0.779
		c-0.82-2.198-1.641-4.396-2.461-6.595c0.209-0.15,0.42-0.301,0.629-0.452c2.34,3.51,4.682,7.02,7.451,11.173
		c-2.152-0.123-3.646-0.208-5.197-0.297c1.379,1.573,2.652,3.121,4.027,4.574C623.991,323.355,624.681,330.655,618.03,337.934z
		 M686.632,201.129c2.848,3.164,2.895,9.329,3.223,14.19c1.377,20.434-6.691,37.63-19.15,53.135
		c-3.229,4.019-6.703,7.851-10.197,11.645c-4.436,4.816-7.396,5.664-13.004,1.919c-5.902-3.943-11.08-8.971-16.561-13.543
		c-1.008-0.841-1.941-1.771-2.91-2.658c-0.449,0.322-0.898,0.644-1.346,0.966c2.406,3.399,4.383,7.247,7.332,10.086
		c3.688,3.551,8.096,6.386,12.346,9.31c2.223,1.53,2.906,2.872,2.047,5.723c-3.742,12.399-9.344,20.486-19.484,27.458
		c-7.543-10.817-15.086-21.621-22.607-32.44c-0.566-0.814-1.004-1.725-1.455-2.614c-2.805-5.537-4.189-10.752,1.752-15.496
		c3.084-2.463,5.377-5.893,8.344-8.532c4.572-4.069,7.176-3.762,11.873,0.712c-5.316-8.419-1.688-14.975,3.09-21.935
		c8.547-12.456,15.762-25.862,24.74-37.979C664.765,187.439,678.188,191.746,686.632,201.129z"/>
	<path fill="#FFFFFF" d="M790.565,250.56c-20.727-49.003-50.395-93.009-88.18-130.793c-37.785-37.785-81.791-67.453-130.795-88.18
		C520.847,10.124,466.954-0.759,411.411-0.759c-55.543,0-109.436,10.883-160.181,32.346c-49.004,20.727-93.009,50.395-130.794,88.18
		c-37.785,37.785-67.453,81.79-88.18,130.793C10.793,301.305-0.089,355.197-0.089,410.74c0,55.544,10.883,109.437,32.346,160.181
		c20.727,49.004,50.395,93.01,88.18,130.794c37.785,37.785,81.79,67.453,130.794,88.18c50.745,21.463,104.638,32.346,160.181,32.346
		c55.543,0,109.436-10.883,160.18-32.346c49.004-20.727,93.01-50.395,130.795-88.18c37.785-37.784,67.453-81.79,88.18-130.794
		c21.463-50.744,32.346-104.637,32.346-160.181C822.911,355.197,812.028,301.305,790.565,250.56z M411.411,782.24
		c-204.846,0-371.5-166.654-371.5-371.5s166.654-371.5,371.5-371.5c204.846,0,371.5,166.654,371.5,371.5
		S616.257,782.24,411.411,782.24z"/>
</g>
</svg>
