<?xml version="1.0" encoding="utf-8"?>
<!-- Generator: Adobe Illustrator 16.0.3, SVG Export Plug-In . SVG Version: 6.00 Build 0)  -->
<!DOCTYPE svg PUBLIC "-//W3C//DTD SVG 1.1//EN" "http://www.w3.org/Graphics/SVG/1.1/DTD/svg11.dtd">
<svg version="1.1" id="Layer_1" xmlns="http://www.w3.org/2000/svg" xmlns:xlink="http://www.w3.org/1999/xlink" x="0px" y="0px"
	 width="50px" height="50px" viewBox="0 0 50 50" enable-background="new 0 0 50 50" xml:space="preserve">
<g>
	<path fill="#F9A602" stroke="#FFFFFF" d="M44.021,8.742v23.299c0,4.412-3.574,7.986-7.988,7.986h-6.577l-2.535,4.388l-2.537,4.394
		l-2.529-4.394l-2.536-4.388h-6.583c-4.407,0-7.988-3.574-7.988-7.986V8.742c0-4.414,3.581-7.988,7.988-7.988h23.298
		C40.447,0.754,44.021,4.329,44.021,8.742z"/>
	<path fill-rule="evenodd" clip-rule="evenodd" fill="#FFFFFF" d="M27.578,19.485c-0.258-0.225-0.52-0.447-0.776-0.674
		c-2.271-2.015-4.233-4.283-5.681-6.969c-0.25-0.463-0.54-0.911-0.675-1.429c-0.178-0.679-0.208-1.357,0.058-2.02
		c0.281-0.699,0.849-0.956,1.577-0.769c0.821,0.211,1.416,0.724,1.931,1.362c0.609,0.756,1.124,1.579,1.669,2.38
		c1.251,1.835,2.515,3.663,3.776,5.491c0.168,0.241,0.357,0.467,0.537,0.7c0.014-0.008,0.027-0.016,0.04-0.024
		c-0.118-0.244-0.227-0.493-0.355-0.731c-0.399-0.737-0.918-1.393-1.413-2.064c-0.457-0.622-0.937-1.234-1.19-1.974
		c-0.212-0.617-0.396-1.245-0.549-1.878c-0.146-0.603-0.259-1.217-0.344-1.832c-0.095-0.677-0.13-1.36,0.094-2.026
		c0.149-0.444,0.398-0.801,0.897-0.884c0.346-0.058,0.677,0.017,0.986,0.186c0.563,0.308,0.934,0.789,1.214,1.349
		c0.371,0.741,0.603,1.53,0.812,2.328c0.611,2.327,1.225,4.653,1.838,6.979c0.008,0.03,0.021,0.058,0.051,0.085
		c-0.01-0.138-0.018-0.275-0.029-0.413c-0.041-0.514-0.102-1.028-0.121-1.542c-0.029-0.812-0.042-1.625-0.039-2.438
		c0.001-0.571,0.087-1.135,0.271-1.678c0.135-0.396,0.326-0.758,0.678-1.012c0.388-0.281,0.884-0.269,1.258,0.034
		c0.379,0.308,0.586,0.725,0.695,1.186c0.068,0.285,0.107,0.583,0.107,0.876c0.01,2.512,0.001,5.024,0.015,7.536
		c0.003,0.523,0.069,1.047,0.123,1.569c0.064,0.628,0.149,1.255,0.222,1.882c0.073,0.632,0.156,1.264,0.207,1.898
		c0.061,0.743,0.073,1.488,0.013,2.233c-0.081,0.992-0.302,1.944-0.716,2.85c-0.439,0.964-1.064,1.795-1.813,2.539
		c-0.168,0.168-0.314,0.357-0.48,0.527c-0.574,0.594-1.281,0.975-2.055,1.238c-0.88,0.299-1.791,0.427-2.718,0.464
		c-0.887,0.036-1.767-0.019-2.645-0.135c-1.882-0.25-3.687-0.761-5.393-1.599c-0.755-0.372-1.48-0.803-2.073-1.408
		c-0.461-0.471-0.896-0.97-1.316-1.478c-0.34-0.411-0.529-0.903-0.683-1.417c-0.241-0.805-0.54-1.592-0.797-2.393
		c-0.119-0.369-0.202-0.75-0.293-1.128c-0.014-0.059-0.003-0.133,0.021-0.19c0.188-0.445,0.553-0.674,1.005-0.767
		c0.847-0.173,1.572,0.092,2.205,0.654c0.195,0.172,0.394,0.341,0.59,0.512c0.674,0.592,1.117,1.338,1.442,2.162
		c0.054,0.137,0.083,0.324,0.186,0.39c0.116,0.075,0.303,0.046,0.459,0.052c0.391,0.014,0.782,0.021,1.172,0.027
		c0.468,0.008,0.93,0.053,1.376,0.207c0.038,0.014,0.101,0.001,0.132-0.024c0.707-0.562,1.284-1.226,1.619-2.077
		c0.155-0.395,0.244-0.805,0.256-1.23c0.008-0.274,0.033-0.548,0.023-0.821c-0.013-0.37-0.18-0.667-0.45-0.927
		c-0.346-0.332-0.659-0.697-0.992-1.042c-0.195-0.203-0.396-0.401-0.604-0.592c-0.108-0.099-0.238-0.112-0.388-0.068
		c-0.48,0.14-0.974,0.196-1.473,0.213c-0.422,0.015-0.844,0.024-1.266,0.047c-0.07,0.004-0.153,0.048-0.204,0.1
		c-0.54,0.547-1.126,1.03-1.837,1.341c-0.656,0.288-1.329,0.402-2.027,0.18c-0.173-0.055-0.334-0.149-0.498-0.23
		c-0.331-0.165-0.402-0.458-0.381-0.792c0.034-0.547,0.251-1.034,0.521-1.497c0.678-1.161,1.554-2.137,2.686-2.879
		c0.366-0.239,0.774-0.32,1.188-0.391c0.569-0.098,1.139-0.2,1.712-0.261c0.684-0.073,1.373-0.079,2.057,0.012
		c0.341,0.045,0.68,0.106,1.02,0.166c0.064,0.011,0.128,0.04,0.186,0.072c1.077,0.61,2.151,1.221,3.228,1.832
		c0.037,0.021,0.076,0.041,0.113,0.061C27.574,19.494,27.576,19.49,27.578,19.485z"/>
</g>
</svg>
