<?xml version="1.0" encoding="utf-8"?>
<!-- Generator: Adobe Illustrator 16.0.3, SVG Export Plug-In . SVG Version: 6.00 Build 0)  -->
<!DOCTYPE svg PUBLIC "-//W3C//DTD SVG 1.1//EN" "http://www.w3.org/Graphics/SVG/1.1/DTD/svg11.dtd">
<svg version="1.1" id="Layer_1" xmlns="http://www.w3.org/2000/svg" xmlns:xlink="http://www.w3.org/1999/xlink" x="0px" y="0px"
	 width="577px" height="556.78px" viewBox="0 0 577 556.78" enable-background="new 0 0 577 556.78" xml:space="preserve">
<path fill-rule="evenodd" clip-rule="evenodd" d="M836.01,593.629c-0.029,0.021-0.02,0.021,0.01,0.011
	C836.02,593.64,836.02,593.629,836.01,593.629z"/>
<g>
	<path fill-rule="evenodd" clip-rule="evenodd" d="M318.327,263.319c-1.918-1.449-4.18-2.809-6.35-2.113
		c-4.193,1.344-6.045-0.834-7.678-3.934c-2.971,0.48-2.924,1.518-1.313,3.936c4,5.998,1.553,13.294-5.441,14.421
		c3.461-5.228,2.268-9.833-0.842-14.175c-2.74-3.828-6.775-3.826-10.813-3.4c-3.797,0.402-5.371,2.932-5.49,6.551
		c1.145-0.168,2.271-0.248,2.924-1.504c1.945-3.752,5.303-2.85,8.318-2.148c1.736,0.402,3.512,1.787,3.455,3.76
		c-0.057,1.885-2.162,1.877-3.529,1.953c-2.061,0.117-3.016,1.955-4.719,2.531c-7.531,12.191,3.475,14.099,11.666,18.488
		c-4.514,0.4-7.43,1.5-10.643-0.043c-2.557-1.229-4.369-0.834-2.67,2.789c0.98,2.092-0.166,4.262-0.768,6.289
		c-0.609,2.055-1.711,4.795-4.168,3.99c-3.258-1.066,0.252-2.775,0.416-4.221c0.492-4.324-0.836-8.029-3.789-10.879
		c-2.746-2.65-5.18,0.016-7.538,1.391c-1.525,0.891-3.012,1.855-5.635,1.252c3.068-3.547,5.652-6.879,7.584-10.633
		c-1.049-1.795-1.049-3.842-1.107-5.785c-0.104-3.513-0.936-6.496-4.523-7.982c0.836-2.145,3.859-0.926,4.102-3.279
		c-5.209-2.992-7.439,1.463-10.377,4.15c-0.504-0.496-1.008-0.99-1.512-1.486c0.244-5.357-1.912-9.887-4.869-14.142
		c-2.217-0.599-4.029-0.892-2.055,2.306c1.039,1.682,2.041,3.404,2.867,5.198c1.998,4.326,2.871,8.543-1.867,11.836
		c-0.574,0.398-1.15,0.969-0.68,1.594c0.455,0.604,1.217,1.201,1.932,1.339c1.967,0.381,3.373-0.912,4.963-1.847
		c2.813-1.656,6.078-2.66,8.422,0.408c2.777,3.638,0.994,11.996-3.047,14.285c-2.17,1.23-3.457,2.873-4.836,4.748
		c-0.838,1.139-1.965,1.828-0.516,3.213c1.088,1.041,1.881,1.713,3.803,1.117c3.072-0.949,5.873-2.252,8.516-3.979
		c2.479-1.619,5.012-1.74,6.485,0.893c1.656,2.963,1.41,6.459-0.504,9.227c-0.721,1.039-3.596,0.814-2.541,3.174
		c0.924,2.07,3.172,2.355,5.193,2.045c4.623-0.715,7.412-3.428,8.215-8.111c0.635-3.705,2.654-5.268,6.596-4.922
		c4.641,0.408,6.133,3.332,6.873,7.207c0.291,1.516-0.447,3.699,1.971,3.959c2.391,0.254,3.531-1.43,4.215-3.482
		c0.924-2.779,1.135-5.598-0.125-8.281c-1.357-2.893-3.365-5.307-6.012-7.193c-2.393-1.705-3.441-3.23-0.104-5.488
		c3.16-2.137,5.551-5.184,6.363-9.212c1.127-5.586,3.139-6.535,8.406-4.061c1.486,0.699,2.83,1.701,4.246,2.551
		c2.526,1.514,2.175-0.579,2.454-1.879C320.364,265.921,319.545,264.242,318.327,263.319z M296.583,272.778
		c-0.516,1.219-1.271,2.342-1.717,3.582c-0.629,1.752,0.57,4.938-3.193,4.104c-3.137-0.693-3.295-3.338-3.457-5.834
		c-0.018-3.755,2.068-5.523,5.52-5.81C296.708,268.571,297.778,269.948,296.583,272.778z M255.397,266.897
		c-0.832-1.251,0.539-1.474,1.305-1.898c0.391,0.564,0.781,1.129,1.171,1.693C257.083,267.319,256.071,267.911,255.397,266.897z"/>
	<path fill-rule="evenodd" clip-rule="evenodd" d="M322.254,265.737c0.047-0.005,0.086,0.003,0.134-0.003
		c-0.001-0.003-0.002-0.007-0.003-0.011c-0.037-0.03-0.069-0.06-0.108-0.09C322.268,265.666,322.262,265.702,322.254,265.737z"/>
	<path fill-rule="evenodd" clip-rule="evenodd" d="M244.383,238.575c-0.002,0-0.234,0.136-0.234,0.136
		c0.119,2.695,2.332,5.159,0.887,8.026c-0.035,4.204-1.119,7.84-5.357,10.588c0.732-12.009-0.613-15.017-7.697-18.106
		c-1.967,0.496-3.936,0.647-5.906,0.021c-7.287,3.699-8.951,9.524-4.756,16.76c2.107,3.635,2.25,7.594,1.671,11.553
		c-0.253,1.73-1.27,3.396-3.721,3.482c-0.516-5.396,1.954-11.627-5.579-14.332c-6.59-2.369-9.633,3.134-14.458,5.604
		c-0.928,3.734-3.489,3.935-5.837,4.339c-0.789,0.137-1.26-0.801-0.933-1.313c1.454-2.28,3.956-2.34,6.801-3.237
		c2.176-5.246,0.7-10.326,0.22-15.403c-2.412-1.633-4.247-3.849-6.108-6.038c-2.34,1.481-3.524,4.747-6.973,4.522
		c-0.938,1.81-3.805-0.563-4.497,2.184c2.26,1.764,4.382,0.123,6.574-0.037c2.874-0.21,6.273-2.673,8.258,2.383
		c2.744,6.996,1.872,10.367-5.261,13.917c-1.654,0.824-3.791,1.184-3.015,3.693c0.716,2.316,2.847,1.896,4.646,1.844
		c5.406-0.162,8.76-3.779,11.846-7.492c2.471-2.971,4.985-3.375,8.259-1.641c3.564,1.889,4.183,4.926,3.439,8.436
		c-0.302,1.418-1.067,2.762-1.749,4.072c-0.841,1.615,0.326,2.4,1.161,3.42c1.306,1.596,2.521,0.41,3.475-0.225
		c5.419-3.605,7.585-9.773,5.619-16.136c-0.78-2.527-1.967-4.928-2.978-7.383c-1.526-3.709-0.92-6.773,2.536-9.145
		c3.591-2.464,6.902-1.807,10.09,0.694c3.443,2.701,4.322,6.098,2.791,10.22c-0.74,1.998-3.018,4.465,0.311,5.959
		c2.984,1.338,5.352-0.906,6.646-3.098c1.477-2.499,1.863-5.618,2.92-8.392C249.061,244.286,248.1,241.027,244.383,238.575z"/>
	<path fill-rule="evenodd" clip-rule="evenodd" d="M199.232,262.309c0.019-0.074,0.041-0.141,0.058-0.218
		c-0.009,0.003-0.017,0.005-0.026,0.007c-0.034,0.083-0.061,0.164-0.097,0.247C199.189,262.333,199.21,262.32,199.232,262.309z"/>
	<path fill-rule="evenodd" clip-rule="evenodd" d="M256.645,155.774c2.633,1.308,5.049,3.028,8.129,3.021
		c4.371-0.009,7.373,2.26,9.698,5.704c0.332,0.012,0.748,0.161,0.98,0.016c8.686-5.436,15.949,0.51,23.695,2.858
		c3.785,1.147,5.434,4.06,6.891,7.253c0.418,0.916,0.625,2.022-0.426,2.666c-1.17,0.716-1.795-0.344-2.391-1.073
		c-0.73-0.895-1.35-1.881-2.02-2.825c-1.752-2.472-4.463-3.516-6.984-2.477c-2.982,1.229-4.951,1.245-6.275-3.553
		c-1.504,5.868-3.385,7.448-6.744,3.38c-0.756-0.914-2.039-1.348-3.184-0.856c-3.408,1.461-4.717-0.44-5.555-3.251
		c-1.059-0.943-2.116-1.886-3.174-2.829c-1.455-2.771-3.145-2.674-5.012-0.409c-0.631,0.761-1.264,1.522-1.896,2.284
		c1.451,1.443,3.443,0.853,5.113,1.388c2.083,0.668,3.023,2.374,2.948,4.576c2.31,0.706,4.39,1.995,7.126,1.213
		c3.449-0.985,5.07,1.354,5.943,4.333c2.682-0.409,5.822-1.499,4.953,3.348c-0.232,0.944-0.543,2.063,0.496,2.572
		c1.023,0.503,1.326-0.437,1.469-1.278l0.084-0.06c3.465-1.862,1.348-5.145,1.965-7.731c4.969-1.981,7.16-1.059,9.623,4.186
		c0.852,1.814,1.51,4.224,4.061,3.225c2.158-0.845,3.029-3.152,2.404-5.438c-1.328-4.844-3.104-9.383-8.598-11.167
		c-3.605-1.171-7.09-2.715-10.629-4.092c-2.91,0.03-5.723-1.906-8.734-0.264c-3.262,1.778-5.73,0.79-7.359-2.483
		c-4.305-1.397-8.608-2.794-12.913-4.191c-3.184-1.755-6.855-0.62-10.234-1.674c-1.047-0.326-4.17,0.534-2.73,3.548
		C250.473,154.82,253.706,154.315,256.645,155.774z"/>
	<path fill-rule="evenodd" clip-rule="evenodd" d="M326.376,247.725c-6.331,1.901-7.974-4.349-11.811-6.786
		c-0.256,1.114-1.215,0.705-1.909,0.867c0.651,3.368-1.888,4.793-4.103,6.037c-2.075,1.165-3.337-0.931-4.474-2.214
		c-2.325-2.626-4.878-4.085-7.784-4.056c0.046-0.56,0.085-1.119,0.094-1.68c0.074-4.729-1.895-8.67-6.508-10.069
		c-4.102-1.244-6.777,1.626-8.799,4.928c-0.174,0.282-0.357,0.563-0.572,0.813c-0.822,0.962-1.277,2.681-2.887,2.307
		c-1.902-0.442-0.939-2.189-0.949-3.34c-0.051-5.313-2.059-9.267-7.282-11.169c-1.59,1.926-2.572,3.378,1.031,4.464
		c2.303,0.694,6.461,1.98,1.49,5.295c-1.023,0.681-1,1.784,0.113,2.382c1.752,0.943,1.286,3.279,2.17,4.047
		c3.158,2.74,6.148,5.404,7.184,9.672c0.059,0.237,0.82,0.303,1.254,0.448c1.422-4.252-1.898-8.832,0.898-12.989
		c-0.275-2.484,1.277-3.595,3.32-4.109c2.332-0.587,4.57,0.143,5.23,2.445c0.705,2.457-1.635,2.704-3.389,3.08
		c-1.779,1.144-0.746,3.108-1.344,4.598c0.887-0.4,1.971-0.604,2.619-1.248c1.09-1.083,2.1-2.53,3.727-1.566
		c0.87,0.514,1.022,1.172,0.905,1.873c-0.904,0.181-1.84,0.492-2.814,0.957c-0.263,0.64-0.525,1.28-0.789,1.92
		c0.989,0.17,1.943-0.308,2.898-0.768c-0.004,0.013-0.009,0.025-0.013,0.038c-0.756,2.524-1.525,5.045-2.289,7.568
		c4.296,0.583,8.689-1.008,12.947,0.562c-0.228,0.702,0.354,1.13,0.85,1.588c6.362-0.146,16.228,6.883,16.991,12.103
		c3.123,2.512,2.913,4.581-0.667,6.759c-1.061,0.645-2.801,0.602-2.795,2.355c0.002,0.447,0.756,1.209,1.244,1.281
		c1.617,0.238,3.365,0.553,4.475-1.219c0.81-1.296,1.503-2.583,1.637-4.167c2.05,0.058,1.072-2.168,1.176-3.194
		c0.384-3.832,1.761-7.03,5.841-7.536c3.948-0.489,5.754,2.594,7.095,5.781c0.762,1.813,0.299,5.295,3.053,4.68
		c2.918-0.652,2.627-4.173,2.678-6.744c0.035-1.88-1.166-3.417-2.277-4.859C339.366,253.05,332.605,250.799,326.376,247.725z
		 M326.069,266.761c-0.458-2.882-1.646-5.459-4.068-7.579l-0.082-0.074c-2.945-0.672-4.42-2.967-5.855-5.303
		c-2.861-2.074-6.332-1.951-9.574-2.654c-0.58,0.166-1.159,0.331-1.737,0.495c-2.534-0.955-3.579-4.122-6.534-4.454
		c-0.049,0.366-0.254,0.588-0.615,0.667c-0.689-0.072-1.379-0.146-2.068-0.219c0.175-1.499,0.412-2.996,0.597-4.494
		c0.727-0.024,1.47,0.238,2.245,1.077c2.849-0.204,3.887,2.161,5.385,3.837c1.692,1.892,3.832,3.427,5.954,1.424
		c2.386-2.251,4.363-1.85,6.816-0.563c2.239,1.173,4.672,1.271,7.225,1.257c6.026-0.032,9.887,4.308,14.428,7.236
		C328.211,258.395,327.26,258.49,326.069,266.761z M340.771,261.325c-0.975-0.689-2.657-1.657-1.597-2.688
		c1.163-1.129,2.085,0.38,2.503,1.642c0.746,0.437,1.4,1.06,0.541,1.787C341.677,262.523,341.147,261.812,340.771,261.325z
		 M342.728,263.419c-0.102-0.063-0.201-0.125-0.303-0.188c0.119-0.152,0.238-0.305,0.357-0.457c0.096,0.116,0.273,0.239,0.264,0.348
		C343.036,263.229,342.841,263.321,342.728,263.419z"/>
	<path fill-rule="evenodd" clip-rule="evenodd" d="M314.532,240.916c0.012,0.007,0.021,0.017,0.033,0.024
		c0.002-0.007,0.005-0.012,0.007-0.019C314.573,240.92,314.532,240.916,314.532,240.916z"/>
	<path fill-rule="evenodd" clip-rule="evenodd" d="M222.794,97.313c-2.319-1.416-4.361-3.151-5.828-5.344
		c-2.659-3.975-6.35-5.512-10.943-5.809c-6.109-0.395-11.733-2.077-16.068-6.835c-0.907-0.997-1.901-2.51-3.756-1.589
		c4.356,4.726,8.489,10.285,15.691,9.984c10.68-0.447,15.072,8.354,21.722,13.847c0.623,0.515,1.869,1.862,0.417,2.939
		c-1.06,0.786-1.842-0.213-2.526-0.873c-2.972-2.86-6.439-3.915-10.48-3.012c-2.391,2.163-2.629,4.759-1.532,7.623
		c3.38,1.721,4.813,5.241,7.244,7.837c2.452-0.668,2.273-2.122,0.922-3.639c-1.43-1.604-3.088-3.003-4.593-4.543
		c-0.931-0.953-1.867-1.999-1.19-3.494c0.704-1.557,2.185-1.303,3.469-1.267c3.701,0.104,5.729,2.119,6.304,5.719
		c0.263,1.647,1.393,2.641,2.867,3.045c1.185,0.324,1.668-0.713,2.089-1.67C228.765,105.317,227.299,100.062,222.794,97.313z"/>
	<path fill-rule="evenodd" clip-rule="evenodd" d="M183.85,121.193c-0.501,0.787-1.002,1.574-1.569,2.465
		c7.76,0.295,10.176,2.955,9.126,9.945c-0.297,1.98-1.105,3.807-2.271,5.481c-0.918,1.318-3.475,2.734-0.748,4.351
		c2.38,1.41,4.543,0.882,4.933-2.458c-0.041-0.514-0.082-1.027-0.122-1.54c-0.274-0.149-0.548-0.298-0.815-0.445
		C196.039,128.055,193.642,123.059,183.85,121.193z"/>
	<path fill-rule="evenodd" clip-rule="evenodd" d="M209.764,149.67c0.057-0.075,0.111-0.156,0.164-0.24
		C209.875,149.514,209.821,149.596,209.764,149.67c0.882-0.432,1.764-0.862,2.645-1.293c-0.1-0.071-0.195-0.131-0.286-0.183
		c-0.058-0.033-0.112-0.057-0.167-0.083c-0.028-0.013-0.059-0.031-0.087-0.042c-0.072-0.03-0.139-0.051-0.205-0.068
		c-0.007-0.002-0.015-0.005-0.022-0.007c-0.07-0.018-0.136-0.027-0.2-0.031c-0.001,0-0.003-0.001-0.005-0.001l0,0
		c0,0-0.001,0-0.001,0c0,0,0,0,0.001,0c1.616-7.818-0.573-12.674-6.758-14.985c1.303,2.512,3.035,4.498,0.885,7.938
		C203.302,144.533,205.343,147.753,209.764,149.67z M209.977,149.353c0.034-0.055,0.067-0.112,0.101-0.168
		C210.044,149.241,210.01,149.297,209.977,149.353z"/>
	<path fill-rule="evenodd" clip-rule="evenodd" d="M251.133,284.141c-1.877-0.074-3.086,1.086-3.252,2.883
		c-0.121,1.338,1.137,1.947,2.258,2.123c1.904,0.301,2.453-1.113,2.818-2.537C253.002,285.233,252.479,284.194,251.133,284.141z"/>
	<path fill-rule="evenodd" clip-rule="evenodd" d="M232.229,272.903c-1.822,0.059-2.67,1.205-2.736,2.922
		c-0.061,1.525,0.523,2.715,2.273,2.549c1.834-0.174,2.383-1.574,2.518-3.199C234.219,273.856,233.717,272.854,232.229,272.903z"/>
	<path fill-rule="evenodd" clip-rule="evenodd" d="M242.747,277.981c-1.541,0.26-2.244,1.221-2.156,2.729
		c0.068,1.145,0.781,1.789,1.91,1.766c1.506-0.033,2.51-0.809,2.479-2.385C244.952,278.754,244.055,278.094,242.747,277.981z"/>
	<path fill-rule="evenodd" clip-rule="evenodd" d="M187.083,290.686c-2.355,0.057-4.116,1.64-4.016,4.065
		c0.084,2.057,1.484,3.748,3.773,3.817c2.419,0.073,3.423-1.54,3.549-3.88C190.177,292.665,189.562,290.627,187.083,290.686z"/>
	<path fill-rule="evenodd" clip-rule="evenodd" d="M170.77,295.516c-1.419-0.063-2.72,0.551-2.655,2.201
		c0.079,2.033,1.505,2.711,3.382,2.668c1.621-0.037,2.255-1.043,2.525-2.531C173.51,296.323,172.289,295.584,170.77,295.516z"/>
	<path fill-rule="evenodd" clip-rule="evenodd" d="M166.572,279.774c-1.282,0.087-2.067,0.873-1.916,2.285
		c0.122,1.132,0.832,1.84,1.907,1.806c1.388-0.043,1.854-1.093,1.923-2.352C168.406,280.319,167.637,279.701,166.572,279.774z"/>
	<path fill-rule="evenodd" clip-rule="evenodd" d="M116.679,319.457c-1.372-0.066-2.213,0.647-2.122,2.059
		c0.09,1.392,1.092,1.893,2.383,1.978c1.218-0.11,2.373-0.422,2.142-1.984C118.895,320.24,117.956,319.519,116.679,319.457z"/>
	<path fill-rule="evenodd" clip-rule="evenodd" d="M195.642,324.712c-1.397-0.124-1.841,0.661-1.806,1.811
		c0.042,1.34,0.844,2.138,2.092,2.436c1.183,0.281,2.018-0.234,2.02-1.468C197.95,325.982,197.03,325.076,195.642,324.712z"/>
	<path fill-rule="evenodd" clip-rule="evenodd" d="M123.071,302.808c-1.167-0.114-1.783,0.604-2.09,1.646
		c-0.07,0.747,0.226,1.337,0.967,1.427c1.193,0.146,1.771-0.697,2.054-1.679C124.205,303.495,123.84,302.884,123.071,302.808z"/>
	<path fill-rule="evenodd" clip-rule="evenodd" d="M48.511,322.481c0.54-1.17,0.345-2.136-0.787-2.843
		C47.063,320.841,47.259,321.807,48.511,322.481z"/>
	<path fill-rule="evenodd" clip-rule="evenodd" d="M117.782,109.133c0.021,2.709,1.287,1.462,2.404,1.217
		c0.852-7.938-0.948-10.295-8.873-11.558c-0.814-0.13-1.782-0.038-2.115-0.938c-0.349-0.944,0.517-1.481,1.115-2.003
		c0.747-0.65,1.576-1.208,2.369-1.806c-0.53-1.094,1.091-2.682-0.744-3.479c-1.379,0.231-1.004,1.592-1.588,2.318
		c-0.838,1.045-1.664,2.449-3.144,1.981c-1.937-0.612-0.08-1.872-0.17-2.832c-0.289-3.075-1.488-0.021-2.202-0.309
		c-1.242,3.198-2.941,4.97-7.003,4.43c-3.33-0.442-6.984,0.527-5.477,5.628c2.27-3.571,5.417-3.797,9.093-2.552
		c2.648,0.897,5.297,1.837,8.188,1.804C116.07,100.958,117.731,102.488,117.782,109.133z"/>
	<path fill-rule="evenodd" clip-rule="evenodd" d="M174.165,91.269c-3.252,0.118-3.197,3.298-4.673,5.058
		c-0.838,1-1.666,2.387-3.137,1.665c-1.288-0.633-0.639-2.043-0.335-3.089c0.846-2.909,0.866-5.776-0.145-8.642
		c-2.214-1.623-4.509-2.063-7.467-0.707c6.89,3,6.89,3,4.725,10.484c-0.184,0.634-0.458,1.265-0.51,1.91
		c-0.261,3.276,1.327,4.53,4.168,2.968C170.57,98.838,174.239,96.41,174.165,91.269z"/>
	<path fill-rule="evenodd" clip-rule="evenodd" d="M126.913,100.993c-3.153,2.591-4.912,5.659-4.265,9.837
		c-2.246,4.683-5.104,5.278-10.318,2.148c-2.747-0.76-4.051,1.71-6.021,2.689c1.762,1.271,3.424-0.749,5.433,0.067
		c7.079,2.879,12.875-0.567,14.395-8.222c0.577-2.904,1.619-5.404,4.924-6.091C129.824,99.867,128.613,99.595,126.913,100.993z"/>
	<path fill-rule="evenodd" clip-rule="evenodd" d="M147.672,86.308c-0.13,1.344-0.737,2.741,1.11,3.211
		c1.48,0.376,1.452-0.893,1.616-1.844c-0.734-1.215,0.376-2.21,0.397-3.319c0.067-3.728-1.25-6.963-4.465-8.872
		c-1.689-1.003-3.98-3.134-5.879,0.058C146.123,76.924,148.278,80.06,147.672,86.308z"/>
	<path fill-rule="evenodd" clip-rule="evenodd" d="M167.201,113.691c0.078,1.362,0.864,2.136,2.104,2.531
		c2.765-0.443,1.271-4.245,3.827-4.854c0.261-2.489,3.756-4.488,1.125-7.417C172.556,107.669,171.162,111.61,167.201,113.691z"/>
	<path fill-rule="evenodd" clip-rule="evenodd" d="M208.684,97.975c-0.981-2.046-2.66-1.561-4.249-1.093
		c-3.944,1.163-4.522,8.282-1.059,12.749c0.875-1.149,1.014-2.583,0.527-3.743C201.833,100.95,204.263,98.902,208.684,97.975z"/>
	<path fill-rule="evenodd" clip-rule="evenodd" d="M153.267,87.59c-0.391,0.003-0.782,0.005-1.174,0.008
		c0.276,0.414,0.085,1.287,0.935,1.094c0.164-0.038,0.209-0.597,0.292-0.987c1.104-0.467,0.159-0.939-0.049-1.41
		C153.269,86.727,153.268,87.158,153.267,87.59z"/>
	<path fill-rule="evenodd" clip-rule="evenodd" d="M306.235,225.842c0.959-0.119,1.328-0.672,1.18-1.604
		c-0.039-1.037,0.26-2.411-1.613-1.612c-0.91,0.213-1.314,0.859-1.471,1.718c-2.049,1.812-3.047,1.585-3.029-1.383
		c0.02-3.271,0.172-6.584-2.57-9.18c-3.625-3.43-8.557-3.543-10.486-0.081c3.477-0.306,7.018-0.905,9.436,2.65
		c0.471,0.693,1.152,1.35,0.816,2.18c-0.406,1.003-1.387,0.782-2.115,0.42c-1.805-0.897-3.576,0.019-5.357-0.033
		c-0.441,0.476-0.842,1.003-1.336,1.416c-1.188,0.988-3.469,1.591-2.561,3.544c0.781,1.684,2.643,0.152,4.016,0.224
		c2.295,0.121,5.486-1.107,6.154,2.266c0.545,2.752,2.387,4.491,3.594,6.71c1.258,0.447,0.682,2.632,2.455,2.589
		C303.001,232.005,301.345,227.96,306.235,225.842z"/>
	<path fill-rule="evenodd" clip-rule="evenodd" d="M256.454,222.543c4.033-0.307,8-1.55,12.104-0.829
		c-0.184-0.272-0.287-0.572-0.311-0.898c-1.898-1.872-2.445-3.602-2.016-6.681c0.467-3.351,3.465-7.169,0.115-10.678
		c-2.574,1.918-1.91,4.701-1.99,7.308c-0.068,2.217,0.566,4.704-1.795,6.251c-1.639-1.023-1.049-2.49-1.289-3.731
		c-0.682-3.542-6.359-7.742-9.938-7.414c-4.078,0.374-7.379,4.03-7.369,8.156c1.58-0.252,2.602-1.029,3.277-2.6
		c1.555-3.612,4.16-3.725,7.354-2.013c4.984,2.672,5.633,6.438,1.787,11.258C256.407,221.296,256.43,221.919,256.454,222.543z"/>
	<path fill-rule="evenodd" clip-rule="evenodd" d="M291.386,194.388c-4.68,1.311-8.73,0.617-11.85-3.499
		c-0.68-0.898-1.949-1.707-2.898-0.458c-0.715,0.941,0.357,1.769,1.029,2.461c3.971,4.089,9.012,4.256,14.203,3.856
		c5.219-2.919,10.51-3.882,16.689-3.011c7.883,1.11,8.076,0.542,10.742,8.771c-2.088-0.486-2.928-2.486-4.443-3.669
		c-2.229-1.74-4.479-2.383-6.564,0.089c-2.092,2.48-1.084,4.678,1.037,6.485c2.764,2.356,5.758,3.989,9.555,2.281
		c3.133-1.409,5.891-0.181,8.393,1.588c2.018,1.427,3.773,3.22,5.736,4.731c2.902,2.235,4.322,4.971,3.334,8.669
		c-1.203-1.573-2.406-3.145-3.607-4.719c-5.555-7.273-18.25-9.174-25.445-3.807c-0.158,1.95-0.324,3.899-0.467,5.851
		c-0.055,0.749-0.471,1.688,0.551,2.068c1.014,0.376,1.482-0.46,1.777-1.197c0.883-2.22,2.449-3.404,4.852-3.448
		c0.645-0.054,1.34,0.031,1.926-0.182c8.613-3.115,13.42-0.46,15.314,8.542c0.229,1.078,0.613,1.859,1.807,1.988
		c1.598,1.986,2.996,1.601,4.34-0.314c2.676-3.816,1.643-12.456-2.221-14.852c-4.188-2.595-6.453-7.569-11.604-8.923
		c-1.67-0.438-1.219-2.092-1.033-3.397c-0.881-4.095-1.883-9.08-6.25-9.861C307.755,188.905,298.612,186.504,291.386,194.388z"/>
	<path fill-rule="evenodd" clip-rule="evenodd" d="M250.596,194.025c-0.209,0.755-0.008,1.622,0.004,2.438
		c3.453,3.771,4.34-1.822,6.75-1.85c0.189-1.934-1.252-3.164-2.02-4.686c-1.191-0.047-1.713-0.916-2.045-1.843
		c-2.711-7.58-9.223-7.84-14.814-7.144c-2.66,0.331-5.451,1.433-3.156,5.185c3.596-3.692,7.775-3.977,12.16-1.791
		C251.692,186.437,251.688,190.078,250.596,194.025z"/>
	<path fill-rule="evenodd" clip-rule="evenodd" d="M275.688,183.557c1.078-1.541,2.582-2.638,4.648-2.008
		c2.02,0.616,2.768,2.146,2.781,4.169c0.004,0.646,0.133,1.318,0.35,1.927c0.324,0.905,1.113,1.188,1.99,1.005
		c1.377-0.286,2.389-1.077,2.846-2.451c0.229-0.686,0.068-1.611-0.611-1.577c-3.766,0.19-3.146-3.668-4.984-5.217
		c-3.906-0.902-7.281-0.257-9.654,3.313C273.419,184.592,273.737,186.348,275.688,183.557z"/>
	<path fill-rule="evenodd" clip-rule="evenodd" d="M274.646,202.7c-0.938-4.606-4.543-4.204-7.829-3.938
		c-2.088,0.169-5.994-0.806-5.656,2.067c0.412,3.507,3.428-1.118,5.197,0.299C269.641,198.903,271.719,203.042,274.646,202.7z"/>
	<path fill-rule="evenodd" clip-rule="evenodd" d="M223.374,170.203c-1.084-0.098-1.304,0.835-1.4,1.689
		c-0.246,2.169,0.146,4.532-1.657,6.388c-1.739-1.336-0.925-2.968-1.246-4.325c-0.741-3.126-2.42-5.924-5.595-6.333
		c-2.84-0.366-6.559-3.12-8.718,1.468c1.646-0.003,3.297-0.069,4.94,0.005c5.132,0.23,7.369,3.263,6.403,8.602
		c0.559,1.202,0.951,2.523,1.713,3.58c1.288,1.787,3.052,1.799,3.897-0.201c1.216-2.875,1.951-5.962,2.771-8.99
		C224.693,171.302,224.418,170.296,223.374,170.203z"/>
	<path fill-rule="evenodd" clip-rule="evenodd" d="M259.877,185.263c0.221-1.279-0.131-2.725-1.49-3.423
		c-1.814-0.933-2.172,0.797-2.932,1.756c0.605,1.692,1.209,3.384,1.813,5.076C260.45,189.343,259.624,186.718,259.877,185.263z"/>
	<path fill-rule="evenodd" clip-rule="evenodd" d="M262.174,174.438c-0.18-0.941-0.361-1.883-0.541-2.824
		c-3.4-1.633-6.641-1.744-9.582,1.005C255.307,173.59,259.202,171.128,262.174,174.438z"/>
	<path fill-rule="evenodd" clip-rule="evenodd" d="M232.424,134.308c0.102,0.063,0.201,0.126,0.303,0.188
		c0.113-0.099,0.309-0.19,0.318-0.298c0.01-0.108-0.168-0.231-0.264-0.348C232.663,134.003,232.543,134.156,232.424,134.308z"/>
	<path fill-rule="evenodd" clip-rule="evenodd" d="M231.676,131.355c-0.418-1.262-1.34-2.771-2.502-1.642
		c-1.061,1.031,0.622,1.999,1.596,2.689c0.377,0.486,0.906,1.197,1.447,0.739C233.077,132.415,232.422,131.792,231.676,131.355z"/>
	<path fill-rule="evenodd" clip-rule="evenodd" d="M146.452,133.408c1.571-1.477,3.702-1.108,5.542-1.695
		c1.006-0.321,2.665-0.327,2.097-1.985c-0.38-1.111-1.67-0.741-2.593-0.413c-2.161,0.767-4.3,1.596-6.448,2.399
		C145.517,132.279,145.985,132.843,146.452,133.408z"/>
	<path fill-rule="evenodd" clip-rule="evenodd" d="M134.665,126.136c2.602,0.908,4.8-1.338,5.947-4.879
		c-2.234,0.115-4.159,0.147-5.456,0.387C132.434,122.146,131.722,125.11,134.665,126.136z"/>
	<path fill-rule="evenodd" clip-rule="evenodd" d="M23.27,290.673c-2.611-2.096-4.914-0.789-6.923,1.279
		c2.925,0.585,7.976-1.272,5.895,5.117c-0.02,0.061,0.524,0.305,0.805,0.463C24.679,295.29,26.034,292.891,23.27,290.673z"/>
	<path fill-rule="evenodd" clip-rule="evenodd" d="M102.04,105.812c-0.881,0.322-1.552,1.271-2.667,0.896
		c-4.684,4.221-2.447,8.28,0.072,12.434c1.727-0.762,1.41-2.258,1.751-3.452c-2.951-4.276-2.6-5.742,1.803-7.61
		c0.934-0.396,2.781-0.196,2.098-1.891C104.61,104.983,103.143,105.41,102.04,105.812z"/>
	<path fill-rule="evenodd" clip-rule="evenodd" d="M270.326,171.725c0.038-0.003,0.077-0.006,0.114-0.009
		c0.001-0.024-0.002-0.045-0.001-0.069c-0.033-0.01-0.065-0.022-0.099-0.032C270.338,171.653,270.329,171.687,270.326,171.725z"/>
	<path fill-rule="evenodd" clip-rule="evenodd" d="M265.76,174.903c-0.023,2.321-0.932,3.688-2.672,4.874
		c-0.803,0.547-1.799,1.354-0.844,2.364c1.096,1.16,2.221,0.26,2.924-0.638c2.302-2.939,4.885-5.764,5.157-9.778
		C268.16,171.884,265.789,172.18,265.76,174.903z"/>
	<path fill-rule="evenodd" clip-rule="evenodd" d="M209.309,205.124c-1.591,0.396-2.242,1.426-2.04,3.028
		C208.427,207.464,210.962,207.705,209.309,205.124z"/>
	<path fill-rule="evenodd" clip-rule="evenodd" d="M521.359,233.724c0-14.81-0.098-29.321,0.1-43.828
		c0.031-2.334,1.391-4.648,2.068-6.758c-21.797,0-44.6,0-67.275,0c1.07,1.221,2.979,2.385,2.994,3.572
		c0.201,15.656,0.135,31.315,0.135,46.891c-1.994,0.385-3.512,0.678-5.498,1.063c1.982,5.203,3.793,9.961,5.705,14.992
		c20.1,0,40.729,0,61.592,0c0.125-2.536,0.238-4.818,0.357-7.259c5.551-0.384,4.443-4.563,5.09-8.091
		C524.766,234.101,523.188,233.927,521.359,233.724z M499.666,194.988c2.236,0,4.182,0,6.473,0c0,1.842,0,3.573,0,5.656
		c-1.986,0-4.053,0-6.473,0C499.666,198.973,499.666,197.243,499.666,194.988z M494.254,195.201c0,1.781,0,3.396,0,5.4
		c-2.035,0-4.096,0-6.73,0c-0.076-1.527-0.166-3.264-0.271-5.4C489.543,195.201,491.609,195.201,494.254,195.201z M474.672,195.042
		c2.057,0,4.004,0,6.523,0c0.088,1.654,0.178,3.389,0.291,5.545c-2.275,0-4.34,0-6.814,0
		C474.672,199.081,474.672,197.351,474.672,195.042z M482.166,233.716c-3.992,0-7.1,0-10.781,0c0-6.529-0.391-12.848,0.254-19.058
		c0.18-1.735,3.482-4.448,5.236-4.362c1.834,0.088,4.852,2.867,5.049,4.716C482.568,221.063,482.166,227.226,482.166,233.716z
		 M494.766,233.761c-3.598,0-6.695,0-10.432,0c0-6.561-0.338-13.002,0.234-19.363c0.146-1.618,3.182-4.131,4.895-4.135
		c1.766-0.004,4.916,2.426,5.063,4.01C495.109,220.654,494.766,227.121,494.766,233.761z M507.486,233.722
		c-3.838,0-6.928,0-10.467,0c0-6.518-0.389-12.83,0.252-19.035c0.18-1.74,3.379-4.373,5.209-4.385
		c1.656-0.012,4.594,2.862,4.775,4.685C507.865,221.04,507.486,227.191,507.486,233.722z"/>
	<path fill-rule="evenodd" clip-rule="evenodd" d="M526.434,175.289c-11.795-16.137-23.59-32.272-35.713-48.857
		c-12.219,16.613-24.16,32.852-36.842,50.093c24.906,0,48.027,0,71.146,0C525.494,176.113,525.965,175.7,526.434,175.289z"/>
	<path fill-rule="evenodd" clip-rule="evenodd" d="M475.809,295.901c10.172,0,19.965,0,30.139,0c0-11.832,0-23.191,0-34.491
		c-10.293,0-20.201,0-30.139,0C475.809,273.069,475.809,284.426,475.809,295.901z M490.668,265.962
		c7.107,0.059,12.789,5.794,12.563,12.679c-0.223,6.701-5.928,12.279-12.594,12.309c-7.021,0.029-12.727-5.617-12.729-12.602
		C477.908,271.254,483.422,265.904,490.668,265.962z"/>
	<path fill-rule="evenodd" clip-rule="evenodd" d="M459.117,178.022c-1.521,0.009-3.035,1.152-4.555,1.768
		c1.469,0.664,2.928,1.882,4.406,1.905c10.484,0.168,20.973,0.09,31.459,0.09c10.32,0,20.643,0.09,30.959-0.094
		c1.613-0.027,3.205-1.304,4.807-2.002c-1.553-0.582-3.1-1.662-4.656-1.671C500.732,177.906,479.922,177.905,459.117,178.022z"/>
	<path fill-rule="evenodd" clip-rule="evenodd" d="M209.184,430.97c-5.839-1.492-12.376-2.029-17.172,3.484
		c-4.309,4.953-5.521,10.557-3.059,16.734c2.092,5.246,3.516,5.904,9.644,4.752c-5.126-3.365-7.937-7.701-6.193-13.92
		c1.434-5.117,5.126-7.914,10.176-8.229c6.065-0.377,9.9,2.973,12.05,8.598c0.404,1.057,2.035,1.646,3.1,2.451
		c0.36-0.418,0.72-0.836,1.08-1.254C218.095,437.515,215.045,432.468,209.184,430.97z"/>
	<path fill-rule="evenodd" clip-rule="evenodd" d="M276.38,502.759c-1.9-1.297-4.223-1.977-6.335-2.904
		c-0.188-1.311-0.378-2.643-0.567-3.973c-0.474-0.324-0.948-0.648-1.422-0.969c1.363,6.801-4.132,5.664-6.781,7.83
		c-1.274,1.041-3.062,2.471-3.129,3.799c-0.325,6.447-0.146,12.92-0.146,19.625c7.684,0,14.606,0,21.845,0
		c0-6.635,0.21-12.955-0.154-19.244C279.604,505.449,277.814,503.736,276.38,502.759z M260.399,517.46
		c0.563-4.197-0.201-10.293,1.916-11.555c3.315-1.973,9.348-2.104,12.743-0.266c2.231,1.209,1.847,7.248,2.774,11.82
		C271.409,517.46,266.454,517.46,260.399,517.46z"/>
	<path fill-rule="evenodd" clip-rule="evenodd" d="M490.373,288.178c5.613,0.068,9.91-4.02,10.016-9.523
		c0.111-5.795-4.172-10.12-9.986-10.085c-5.455,0.033-9.949,4.46-9.932,9.784C480.486,283.696,484.939,288.11,490.373,288.178z
		 M488.697,269.696c1.662,4.506,2.572,9.766,9.676,8.803c-0.34,0.74-0.68,1.479-1.02,2.217c-2.648-0.227-6.445,0.535-7.684-0.906
		c-1.93-2.244-2.123-5.982-3.053-9.087C487.311,270.38,488.004,270.039,488.697,269.696z"/>
	<path fill-rule="evenodd" clip-rule="evenodd" d="M481.05,81.54C428.47,28.96,358.56,0,284.2,0c-54.58,0-107.43,15.79-152.85,45.67
		c-0.75,0.49-1.49,1-2.32,1.55c-4.37,2.94-8.73,6.06-12.93,9.24c-0.59,0.45-1.17,0.89-1.76,1.34l-0.53,0.42
		c-7.58,5.87-15,12.26-22.08,19.02c-0.91,0.88-1.83,1.77-2.76,2.68c-1.86,1.85-3.41,3.4-4.94,4.99c-0.68,0.7-1.36,1.41-2.02,2.12
		c-1.19,1.24-2.35,2.5-3.51,3.76c-0.84,0.92-1.68,1.86-2.48,2.77c-6.17,6.94-12.03,14.23-17.39,21.65
		c-0.78,1.06-1.53,2.12-2.25,3.15c-0.93,1.31-1.85,2.64-2.74,3.96c-0.68,0.98-1.34,1.98-2,2.99c-1.1,1.66-2.25,3.45-3.41,5.3
		l-1.08,1.05v0.69c-0.06,0.1-0.12,0.2-0.18,0.3c-2,3.24-4.02,6.66-5.97,10.16c-0.76,1.34-1.49,2.69-2.23,4.05l-0.59,1.12v0.01
		c-2.27,4.27-4.46,8.67-6.51,13.09c-16.44,35.31-25.12,73.1-25.81,112.29c-0.04,1.67-0.05,3.34-0.05,5.021v0.46
		c0,2.2,0.03,4.42,0.09,6.59c0.11,4.229,0.3,8.34,0.57,12.22c0.13,1.94,0.28,3.87,0.45,5.811c0.19,2.09,0.4,4.17,0.64,6.29l0.06,0.6
		c0.06,0.5,0.12,0.98,0.17,1.39c0.21,1.721,0.43,3.431,0.66,5.141l0.05,0.39c0.01,0.07,0.02,0.13,0.03,0.19l0.02,0.17
		c0.28,1.939,0.58,3.88,0.89,5.81l0.02,0.07c0.06,0.439,0.14,0.88,0.2,1.24c0.09,0.54,0.18,1.09,0.27,1.58
		c0.23,1.319,0.46,2.63,0.71,3.92c0.33,1.8,0.69,3.59,1.06,5.34c0.24,1.14,0.48,2.279,0.73,3.41l0.06,0.27
		c0.2,0.91,0.41,1.82,0.62,2.71c2.56,10.95,5.83,21.86,9.7,32.4c2.16,5.89,4.59,11.85,7.2,17.67c0.28,0.64,0.58,1.29,0.87,1.93
		l0.05,0.12c0.66,1.43,1.32,2.86,1.99,4.25c0.23,0.48,0.45,0.97,0.7,1.45c10.83,22.33,24.66,43.17,41.09,61.93
		c5.32,6.07,10.95,11.96,16.74,17.521c7.25,6.97,14.98,13.619,22.97,19.77c3.07,2.37,5.93,4.48,8.74,6.47
		c2.27,1.61,4.13,2.9,5.88,4.07l0.27,0.18c5.8,3.891,11.85,7.62,17.95,11.07c3,1.71,6.08,3.38,9.12,4.94
		c1.25,0.659,2.53,1.3,3.78,1.93c5.68,2.83,11.54,5.5,17.41,7.939c5.94,2.461,11.98,4.73,17.95,6.73c1.39,0.47,2.77,0.92,4.17,1.36
		l0.3,0.09c3.63,1.16,7.38,2.26,11.15,3.28l0.4,0.1c1.06,0.29,2.12,0.57,3.17,0.84c22.57,5.811,45.95,8.75,69.49,8.75
		c48.859,0,96.859-12.82,138.93-37.1l1.18-0.681c7.87-4.59,15.57-9.6,22.881-14.899c8.359-6.05,16.46-12.62,24.079-19.54
		c7.99-7.25,15.62-15.04,22.7-23.13c0.511-0.59,1.021-1.181,1.521-1.771l0.13-0.149c7.38-8.601,14.31-17.75,20.58-27.2
		c30.35-45.66,46.39-98.88,46.39-153.92C562.59,204.03,533.63,134.12,481.05,81.54z M108.25,75.73c0.14,0.58,0.26,1.16,0.36,1.75
		c0.29,1.76,0.71,3.96-1.17,4.86c-2.76,1.32-1.71-1.9-2.72-2.75c-0.14-0.12-0.3-0.23-0.46-0.34
		C105.58,78.06,106.91,76.88,108.25,75.73z M66.71,121.1c1.74-2.4,3.52-4.79,5.36-7.15c-0.1,1.03-0.09,2.06,1.06,2.45
		c1.42,0.48,1.36-1.04,1.73-1.83c0.99-2.17,3.04-3.29,4.85-2.31c3.85,2.1,7.37,4.82,10.98,7.35c0.54,0.37,0.75,1.26,0.16,1.7
		c-0.46,0.33-1.48,0.54-1.84,0.26c-5.07-3.88-9.02-1.41-12.82,2.11c0.17,4.28,0.39,8.56,0.5,12.84c0.03,1.11,0,2.63-1.53,2.63
		c-1.18,0-1.22-1.37-1.23-2.32c-0.08-4.88-2.89-7.32-7.28-8.65c-1.84-0.55-3.1-1.01-3.83-1.57c0.57-0.82,1.15-1.65,1.75-2.5
		C65.26,123.11,65.97,122.11,66.71,121.1z M92.85,302.07c-2.6-3.59-5.02-7.33-9.99-5.78c-3.85,1.2-6.97,3.021-9.29,6.87
		c-1.71,2.84-0.74,3.12,1.23,4.29c0.28,0.17,0.56,0.351,0.83,0.55c0.15,0.101,0.29,0.2,0.43,0.32c0.02,0.01,0.04,0.03,0.05,0.04
		c0.1,0.09,0.21,0.16,0.3,0.25c0.09,0.07,0.18,0.15,0.26,0.23c0.13,0.109,0.26,0.229,0.38,0.35c0.17,0.16,0.34,0.33,0.51,0.51
		c0.19,0.21,0.39,0.43,0.56,0.66c0.2,0.23,0.38,0.47,0.55,0.71c0.16,0.21,0.3,0.42,0.43,0.64c0.05,0.051,0.08,0.12,0.12,0.181
		c0.15,0.22,0.28,0.45,0.41,0.689c0.14,0.261,0.28,0.521,0.41,0.79c0.12,0.23,0.22,0.471,0.32,0.7c0.13,0.3,0.25,0.61,0.36,0.93
		c0.09,0.25,0.17,0.511,0.24,0.771c0.06,0.21,0.12,0.43,0.17,0.649c0.01,0.051,0.02,0.101,0.03,0.141
		c-0.87,0.29-1.32,1.18-1.21,2.319c0.09,1.03,0.53,1.841,1.26,2.33c-0.14,0.551-0.33,1.08-0.58,1.57c-0.71,1.38-1.31,3.72-3.36,2.96
		c-2.06-0.76-0.15-2.55-0.09-3.88c0.17-3.8-0.95-7.02-4.55-8.69c-4.23-1.96-8.59-2.579-12.76,0.341c-0.27,0.189-0.43,0.51-0.7,0.71
		c-1.75,1.35-2.39,4.239-5.33,3.89c-0.33-0.04-0.92-0.81-0.84-0.98c1.15-2.479,1.87-5.3,4.36-6.85c1.7-1.06,3.53-1.89,4.58-3.72
		c0.5-0.88,1.21-2.01,0.35-2.74c-1.34-1.15-1.43,1.57-2.71,1.18c-2.35,2.07-1.99-0.52-2.75-1.5c-0.46-0.6-0.85-1.319-1.25-2.029
		c-0.2-0.341-0.4-0.681-0.61-1.011c-0.14-0.21-0.28-0.409-0.43-0.6c-0.2-0.25-0.42-0.48-0.66-0.68c-0.1-0.08-0.19-0.16-0.29-0.221
		c-0.28-0.189-0.59-0.34-0.94-0.43c-0.1-0.03-0.21-0.06-0.32-0.07c-0.03-0.01-0.06-0.01-0.09-0.01c-0.16-0.03-0.32-0.04-0.49-0.04
		c-0.54,0-1.15,0.11-1.86,0.36c-0.08,0.58,0.1,0.979,0.4,1.32c0.09,0.1,0.18,0.189,0.29,0.27c0.24,0.2,0.52,0.38,0.79,0.58
		c0.07,0.05,0.14,0.1,0.21,0.15c0.21,0.149,0.4,0.319,0.57,0.52c0.06,0.07,0.12,0.15,0.17,0.24c0.05,0.08,0.1,0.17,0.13,0.27
		c0.11,0.26,0.15,0.561,0.11,0.92v0.011c-0.01,0.079-0.02,0.17-0.04,0.26c-0.02,0.01-0.04,0.02-0.06,0.03
		c-0.35,0.14-0.71,0.229-1.07,0.289c-0.18,0.03-0.37,0.051-0.55,0.061c-0.86,0.06-1.74-0.03-2.63-0.12
		c-0.22-0.02-0.44-0.04-0.66-0.06c-0.38-0.03-0.76-0.061-1.14-0.061c-0.13,0-0.25,0-0.37,0.01c-0.13,0-0.26,0-0.38,0.021
		c-0.17,0.01-0.35,0.03-0.52,0.06c-0.22,0.03-0.43,0.08-0.65,0.15c-0.08,0.02-0.16,0.05-0.23,0.07c-0.08,0.029-0.16,0.06-0.24,0.09
		c-0.5,0.2-1.11,0.35-1.68,0.529c-0.19,0.061-0.38,0.131-0.55,0.2c-0.15,0.05-0.29,0.12-0.41,0.19c-0.06,0.03-0.12,0.07-0.17,0.109
		c-0.08,0.04-0.15,0.101-0.21,0.16c-0.04,0.03-0.07,0.061-0.1,0.101c-0.1,0.1-0.18,0.21-0.23,0.34c-0.02,0.03-0.03,0.08-0.04,0.12
		c-0.02,0.06-0.03,0.12-0.05,0.2c-0.01,0.1-0.02,0.199-0.01,0.319c-0.01,0.061,0,0.12,0.02,0.2c0.01,0.05,0.02,0.1,0.03,0.15
		c0,0,0,0.01,0,0.02c0.01,0.04,0.02,0.09,0.04,0.13c0.06,0.23,0.17,0.48,0.32,0.771c0.04,0.08,0.09,0.17,0.15,0.26
		c0.05,0.1,0.11,0.2,0.18,0.3c1.24-0.899,2.48-1.49,3.73-1.82c0.23-0.069,0.45-0.119,0.68-0.17c0.49-0.09,0.98-0.149,1.48-0.18
		c1.02-0.05,2.05,0.03,3.09,0.23c0.17,0.029,0.34,0.069,0.51,0.109c0.17,0.04,0.34,0.08,0.5,0.12c0.17,0.05,0.34,0.09,0.51,0.14
		c0.38,0.11,0.76,0.23,1.15,0.37c0.18,0.061,0.36,0.13,0.55,0.19c0.6,0.229,1.22,0.479,1.83,0.75c0.37,0.16,0.74,0.33,1.11,0.51
		c-2.47,0.67-6.16,0.32-4.12,4.8c0.58,1.271-1.36,2.38-2.84,2.86c-1.02,3.02,2.2,4.58,2.48,7.16c1.17,2.02,1.68,3.96-0.68,5.56
		c-2.35,1.851-2.41-0.6-3.18-1.7c-0.18-0.26-0.35-0.529-0.51-0.8c-0.03-0.04-0.05-0.08-0.07-0.12c-0.12-0.189-0.23-0.39-0.33-0.58
		c-0.17-0.3-0.34-0.609-0.51-0.909c0-0.011,0-0.011-0.01-0.021c-0.18-1.08-0.79-2.01-1.9-2.729c-0.02-0.021-0.04-0.03-0.05-0.04
		c-0.1-0.11-0.21-0.221-0.32-0.32c-0.13-0.11-0.27-0.23-0.41-0.34c-0.22-1.07-0.93-1.59-2.08-1.62c0.03,0.12,0.06,0.24,0.1,0.35
		c-0.01-0.01-0.02-0.02-0.03-0.02c-0.24-0.11-0.47-0.2-0.71-0.28c-0.12-0.04-0.24-0.07-0.36-0.1c-1.08-0.24-2.18-0.05-3.5,0.75
		c-1.1,0.66-2.4,1.05-3.66,1.42c-1.28,0.38-2.66,0.57-3.59-0.72c-0.91-1.271,0.3-2.051,0.81-3.03c0.68-1.29,1.18-2.69,1.75-4.04
		c-2.2-1.84-4.81-2.82-7.52-3.61c3.44,3.38,4.96,7.16,2.45,11.771c-0.06,0.7-0.33,1.21-0.7,1.63c-0.15,0.16-0.31,0.31-0.49,0.439
		c-0.8,0.62-1.8,1.04-2.45,1.801c2.66,1.72,4.66-2.49,7.31-0.811c1.39-0.49,2.8-0.95,4.17-1.479c1.82-0.721,3.9-2.271,5.51-0.57
		c1.5,1.61-0.89,3.2-1.18,4.89c0.07,0.19,0.15,0.37,0.23,0.551c0.06,0.13,0.11,0.25,0.16,0.369c0.28,0.601,0.6,1.141,0.94,1.631
		c0.13,0.189,0.27,0.369,0.41,0.539c0.1,0.131,0.21,0.25,0.32,0.37c0.09,0.101,0.17,0.181,0.26,0.271c0.24,0.25,0.5,0.47,0.77,0.67
		c0.04,0.03,0.09,0.07,0.13,0.11c0.25,0.18,0.52,0.359,0.8,0.5c0.11,0.06,0.23,0.119,0.34,0.18c0.02,0.02,0.04,0.03,0.06,0.03
		c0.13,0.069,0.26,0.13,0.4,0.18c0.01,0.01,0.03,0.02,0.05,0.02c0.33,0.131,0.67,0.24,1.02,0.341c0,0,0.01,0.01,0.02,0.01
		c0.06,0.04,0.13,0.08,0.2,0.109c0.44,0.2,0.83,0.24,1.16,0.15c0.01,0.01,0.01,0.01,0.02,0c0.17,0.03,0.35,0.05,0.54,0.06
		c0.19,0.021,0.38,0.03,0.58,0.04c4.62,0.15,5.49,4.381,7.3,7.511c2.88,3.34,2.41,7.34,2.03,11.25c-0.13,1.359-1.3,2.75-2.68,2.319
		c-2.03-0.62-0.74-2.069-0.11-3.1c1.77-2.85-0.23-5.37-0.58-8.04c0.26-0.29,0.38-0.7,0.29-1.23c-0.2-1.229-1.07-1.939-2.38-1.97
		c-0.45,0.021-0.8,0.141-1.06,0.34c-0.36-0.159-0.73-0.3-1.12-0.409c-0.11-0.04-0.23-0.07-0.35-0.101c-0.72-0.2-1.48-0.33-2.24-0.45
		c-0.28-0.04-0.55-0.09-0.83-0.14c-1.05-0.17-2.09-0.35-3.07-0.68c-0.1-0.03-0.21-0.07-0.31-0.101c-0.2-0.08-0.4-0.16-0.6-0.25
		c-1.09,0.46-2.2,0.54-3.33,0.2c-3.29,1.04-4.58,3.22-4.19,6.68c0.08,0.7,0.11,1.4,0.07,2.091c-0.01,0.149-0.02,0.31-0.04,0.46
		c-0.02,0.239-0.06,0.479-0.1,0.71c-0.04,0.18-0.07,0.35-0.12,0.529c0,0.021,0,0.03-0.01,0.051c-0.04,0.14-0.08,0.279-0.13,0.42
		c-0.14,0.42-0.31,0.83-0.54,1.22c-0.05,0.1-0.11,0.2-0.17,0.29c-0.23,0.37-0.5,0.729-0.82,1.07c-0.17,0.449-0.22,1-0.52,1.34
		c-0.41,0.46-0.77,1.12-1.09,1.81c0,0-0.01,0.01-0.02,0.021c-0.79,1.54-1.53,3.109-2.78,2.229c-2.3-1.62,0.89-3.61,2.06-5.29
		c0-2.04,0-4.08-0.01-6.12c-0.74-0.529-0.91-1.22-0.58-2.06c-0.03-0.12-0.06-0.24-0.09-0.36c-0.13-0.52-0.26-1.04-0.39-1.569
		c-0.53-0.58-1.07-1.181-1.65-1.721h-0.01c-0.96-0.89-2.05-1.58-3.43-1.689c-1-0.08-1.66-0.42-2.13-0.91
		c-0.04-0.2-0.09-0.391-0.13-0.59l-0.12-0.57c-0.27-1.17-0.52-2.35-0.77-3.56c-0.36-1.7-0.7-3.41-1.03-5.141
		c-0.23-1.24-0.46-2.49-0.68-3.79c-0.08-0.47-0.17-0.939-0.26-1.51c-0.04-0.24-0.08-0.48-0.12-0.72l-0.07-0.431
		c-0.31-1.92-0.6-3.84-0.88-5.779v-0.13c0.19-0.15,0.47-0.29,0.85-0.391c1.63-0.439,2.84,0.71,3.49,2.181
		c0.71,1.63,0.88,3.659,3.29,3.779c-1.95-6.71-4.13-9.359-8.07-8.79c-0.11-0.76-0.2-1.54-0.3-2.34c-0.05-0.43-0.1-0.85-0.15-1.27
		l-0.07-0.61c-0.23-2.01-0.42-4.03-0.61-6.05c-0.17-1.851-0.3-3.72-0.43-5.59c-0.27-3.74-0.45-7.7-0.55-11.801
		c-0.06-2.09-0.09-4.22-0.09-6.319v-0.46c0-1.601,0.01-3.19,0.05-4.811c0.04-2.25,0.11-4.49,0.2-6.72c1.44-1.89,4-1.35,6.26-1.46
		c0.14-0.12,0.28-0.23,0.42-0.33c0.28-0.19,0.55-0.36,0.82-0.49c1.03-0.5,2.03-0.56,3.03-0.37c0.16,0.02,0.33,0.06,0.49,0.11
		c0.16,0.04,0.33,0.08,0.49,0.14c0.18,0.86,0.39,1.7,0.66,2.53c0.39,1.22,1.53,1.84,2.72,1.14c0.54-0.32,0.72-0.76,0.69-1.24
		c0.04,0.06,0.07,0.1,0.1,0.16c0.16,0.35,0.19,0.74,0.02,1.12c-0.45,1.04-1.67,1-2.55,0.39c-1.64-1.12-3.35-1.13-5.16-0.66
		c-0.36,0.55-0.72,1.11-1.08,1.67c0.55,1.31,1.11,2.61,1.67,3.92c3.02,1.15,5.72-0.229,8.49-1.09c5.12-3.39,11.67-2.19,16.6,3.71
		c-5.91-1.42-11.35-3.84-16.04,0.86l-0.04,0.05c-0.96-0.07-1.92-0.21-2.88-0.22c-1.12-0.011-2.58-0.101-2.81,1.25
		c-0.31,1.89,1.08,2.439,2.73,2.449c0.87,0.73,1.54,1.5,2.02,2.33c1.34,2.25,1.32,4.851,0.42,7.61c-0.37,1.11-1.36,2.07-2.67,1.8
		c-0.9-0.189-1.09-1.189-0.87-2.07c0.5-1.989,0.17-3.47-0.61-4.689c-1.03-1.61-2.85-2.75-4.58-3.95c-2.27,0.89-4.73-2.09-7.25,0.73
		c4.69,0.27,4.12,3.96,4.77,6.89c0.5,0.49,1,0.97,1.5,1.45c0.36,0.359,0.71,0.7,1.08,1.04c0.31,0.29,0.63,0.59,0.95,0.87
		c0.26,0.239,0.53,0.479,0.81,0.71c0.21,0.18,0.43,0.359,0.65,0.529c0.14,0.12,0.29,0.24,0.45,0.351c0.17,0.14,0.35,0.27,0.53,0.399
		c0.12,0.091,0.24,0.17,0.36,0.261c0.04,0.029,0.08,0.05,0.12,0.08c0.16,0.109,0.32,0.22,0.48,0.319c0.93,0.601,1.91,1.13,2.98,1.57
		c0.56,0.229,1.14,0.43,1.75,0.6c0.33,0.09,0.65,0.17,0.97,0.24c0.32,0.07,0.62,0.13,0.93,0.18c0,0,0.01,0,0.02,0
		c0.23,0.03,0.47,0.061,0.7,0.08c0.11,0.021,0.23,0.03,0.34,0.03c0.24,0.02,0.48,0.03,0.72,0.03c0.37,0,0.73-0.011,1.08-0.061
		c0.06,0,0.12-0.01,0.18-0.02c0.76-0.09,1.49-0.271,2.19-0.55c0.65-0.261,1.28-0.591,1.88-1.011c0.11-0.069,0.22-0.14,0.32-0.22
		c0.38-0.27,0.75-0.57,1.11-0.91c0.13,0.23,0.26,0.48,0.4,0.73c0.07-0.45,0.14-0.891,0.2-1.311l0.01-0.01
		c0.17-0.18,0.35-0.38,0.53-0.58c0.23-0.26,0.46-0.51,0.69-0.74c0.16-0.17,0.33-0.34,0.49-0.479c0.07-0.07,0.13-0.13,0.19-0.2
		c0.02,0,0.03-0.01,0.04-0.03c0.47-0.439,0.94-0.819,1.42-1.14c0.29-0.21,0.58-0.39,0.87-0.55c0.04-0.021,0.09-0.04,0.13-0.07
		c0.15-0.08,0.29-0.16,0.44-0.22c0.64-0.311,1.29-0.53,1.94-0.66c0.16-0.04,0.33-0.06,0.5-0.08c1.04-0.14,2.11-0.06,3.21,0.23
		c0.3,0.08,0.6,0.18,0.91,0.29c1.38,0.51,2.81,1.34,4.32,2.489c3.23,2.261,6.46,2.641,10.1,0.65c4.1-2.25,17.98,0.52,21.21,3.99
		C92.64,298.52,93.54,299.76,92.85,302.07z M49.72,147.69c1-1.79,2.02-3.56,3.05-5.29c0.91,1.03,2.28,1.8,4.3,2.24
		c2.92,0.63,2.49,3.79,3.44,5.9c1.65,1.84,3.22,3.75,4.96,5.5c3.35,3.38,2.79,7.23,1.48,11.17c-0.32,0.94-1.13,1.76-2.3,1.39
		c-0.91-0.3-1.2-1.28-1.01-2.08c2.19-9.54-5.83-12.1-11.32-16.11c-1.14-0.83-2.41-0.9-3.72-0.68
		C48.97,149.05,49.34,148.37,49.72,147.69z M228.29,535.32c0.67-4.32,0.02-10.39,2.17-11.64c3.33-1.931,9.36-1.98,12.71-0.101
		c2.19,1.24,1.67,7.3,2.46,11.74H228.29z M284.2,546.78c-12.69,0-25.34-0.89-37.82-2.65h1.4c0-6.579,0.16-12.75-0.11-18.899
		c-0.07-1.521-1.18-3.561-2.44-4.351c-2.23-1.38-4.95-1.97-7.65-2.96V507.73c-0.39-0.021-0.79-0.05-1.18-0.08v8.729
		c-4.17,3.07-9.13,4.851-9.61,7.45c-1,5.41-0.62,11.08-0.46,16.681c-3.06-0.66-6.1-1.381-9.13-2.16c-1.14-0.3-2.29-0.601-3.43-0.91
		l-0.66-0.18h-0.01c-3.51-0.96-7-1.99-10.37-3.07l-0.76-0.24h-0.01c-1.08-0.35-2.16-0.7-3.25-1.07c-4.76-1.59-9.57-3.359-14.31-5.27
		c18-12.08,37.83-21.18,59.38-27.35c59.81-17.15,117.61-14.021,172.541,11.779C376.21,534.79,330.6,546.78,284.2,546.78z
		 M191.48,479.58c0.33-6.22,5.78-10.34,12.08-10.109c5.91,0.21,10.67,4.739,11.22,10.659c0.03,0.33,0.03,0.66,0.02,1
		c-0.06,4.82,1.47,10.57-0.66,14.171c-1.93,3.26-7.83,4.189-12,6.109c-3.3,1.521-6.63,3-10.77,4.86
		C191.37,496.8,191.04,488.169,191.48,479.58z M223.88,480.19c0.26-5.01,3.1-8.38,7.67-10.061c4.39-1.619,8.55-0.76,12.04,2.431
		c3.84,3.5,4.11,8.149,3.62,12.89c-0.08,0.68-1.2,1.601-1.99,1.82c-6.86,1.84-13.75,3.55-21.39,5.49
		C223.83,488.12,223.67,484.14,223.88,480.19z M387.81,469.78c6.54-1.85,13.5,2.08,14.681,9.01c0.729,4.32,0.13,8.87,0.13,13.931
		c-7.46-1.9-14.5-3.641-21.49-5.521c-0.76-0.2-1.64-1.14-1.88-1.91C377.39,479.24,381.71,471.52,387.81,469.78z M435.28,500.25
		c-1.761,1.21-3.54,2.391-5.34,3.551c-5.551-2.311-10.891-4.53-16.181-6.87c-0.939-0.41-1.939-1.931-1.95-2.95
		c-0.05-5.14-0.199-10.351,0.471-15.44c0.75-5.71,5.96-9.31,11.93-9.069c5.56,0.21,10.68,4.31,10.93,9.75
		C435.46,486.14,435.34,493.09,435.28,500.25z M464.55,477.16c-6.47,5.87-13.29,11.48-20.33,16.72c0-4.22,0.03-8.439,0.11-12.659
		c0.12-6.48,4.67-11.28,10.68-11.75c5.101-0.391,9.25,1.81,11.391,5.989C465.79,476.03,465.17,476.6,464.55,477.16z M512.04,420.3
		V256.07c-2.03,0.12-3.73,0.21-5.67,0.33c0.87,2.14,2.02,3.67,2.04,5.23c0.149,11.35,0.22,22.71-0.07,34.05
		c-0.05,1.84-1.689,4.63-3.22,5.16c-1.59,0.56-5.03,2.27-6.13-1.811c-0.11-0.4-3.3-0.74-4.21-0.03
		c-3.73,2.931-4.28,2.931-7.721,0.101c-0.899-0.75-4.109-0.5-4.199-0.17c-1.051,3.97-4.761,2.72-6.021,1.949
		c-1.77-1.09-3.33-3.92-3.42-6.069c-0.38-8.66-0.26-17.36-0.12-26.04c0.07-4.05,0.61-8.1,0.96-12.49c-0.85-0.04-2.479-0.11-4.5-0.21
		v200.18h15.431c-0.551,0.63-1.12,1.271-1.69,1.891h-44.68c-2.261-4.21,3.029-11.521-6.511-12.141c-10.6-0.689-5.89,7.54-7.75,12.15
		h-94.29c-2.449-4.14,2.87-11.57-6.649-12.18c-10.66-0.69-6.41,7.59-7.83,12.069h-94.06c-2.55-4.109,2.99-11.279-6.31-12.029
		c-10.63-0.851-6.68,7.279-7.98,12.13h-61.55l-2.36-11.67c5.96-2.94,12.1-5.53,18.26-8.03c6.54-2.65,13.24-4.92,19.76-7.32
		c-14.6-3.52-27.35,1.04-39.67,7.21l-2-9.83c28.69,0.011,57.37,0.011,86.05,0c1,0,2.52,0.25,2.9-0.27c2.07-2.79,3.67-0.62,5.23,0.36
		c13.71,8.6,27.35,17.31,41.1,25.84c2.01,1.25,4.48,1.729,6.74,2.569c0.19-0.449,0.37-0.89,0.56-1.33
		c-1.18-0.829-2.34-1.71-3.55-2.489c-14.46-9.301-28.8-18.771-43.45-27.74c-4.4-2.7-6.8-5.71-5.62-10.72
		c0.54-2.28,2.02-4.32,3.45-7.25h-23.55c0-4.601-1.48-9.87,0.28-11.38c5.66-4.87,12.52-8.36,18.92-12.37
		c-0.99,7.649,7.94,16.71-5.36,21.1c0.58,0.28,1.15,0.55,1.73,0.82c2.38-1.29,4.75-2.59,7.31-3.98c1.67,3.22,3.25,6.29,4.99,9.65
		c-2.2,0.58-4.06,1.08-5.87,1.56v6.51c16.12-0.649,31.91-1.989,47.67-1.72c15.91,0.26,31.79,2.12,48.37,3.33
		c-1.71,8.5-3.17,15.73-4.61,22.9c2.95,0.72,5.44,1.31,8.17,1.97c1.62-7.65,3.18-15.06,4.771-22.58
		c27.27,5.021,53.6,10.78,79.14,19.73c4.49,1.569,8.71,3.79,13.78,1.56c1.79-0.78,4.3-0.21,6.42,0.12
		c2.71,0.43,4.76,1.86,4.319,5.05c-0.6,4.25,2.421,5.92,5.45,6.45c3.74,0.67,7.69,0.16,11.55,0.16c0.171-0.51,0.33-1.021,0.49-1.53
		c-6.149-3.54-12.3-7.08-18.45-10.64c-1.279-0.75-3.1-1.32-3.63-2.471c-3.489-7.42-6.68-14.979-10.479-23.64
		c8.79,4.3,16.26,7.97,23.75,11.6c6.55,3.171,10.55,7.851,9.99,15.62c-0.261,3.61-0.051,7.25-0.051,11.03h8.561V256.35h-8.72v121.08
		c-9.91-7.95-18.69-15.37-27.86-22.271c-9.771-7.35-17.57-16.399-23.91-26.67c-2.76-4.47-4.45-9.62-6.34-14.57
		c-0.43-1.109-0.04-2.899,0.61-4c2.789-4.659,2.34-6.85-1.61-10.88c-10.4-10.59-20.811-21.17-30.79-32.15
		c-2.76-3.04-4.21-3.41-7.64-1.19c-10.95,7.061-22.091,13.79-33.171,20.66h-0.02c-0.1-0.01-0.2-0.01-0.32,0
		c-0.939,0.1-1.59,0.64-1.939,1.4c-0.75,0.46-1.49,0.93-2.23,1.39c-1.5,0.93-3.02,2.25-3.84,3.75c-1.54,2.83-2.95,5.84-3.76,8.95
		c-2.32,9.02-9.101,14.75-15.45,20.52c-4.59,4.181-10.21,7.36-15.71,10.37c-34.48,18.94-68.96,37.87-103.64,56.44
		c-10.78,5.77-22.17,10.39-33.28,15.54c0.23,0.52,0.45,1.04,0.68,1.56c12.59-5.7,25.2-11.41,38.22-17.31
		c-1.97,10.659-12.6,10.37-17.81,16.85c4.59-2.21,9.19-4.42,14.01-6.74v8.521h-46.78l-3.56-17.55h-0.12
		c0.31-0.32,0.63-0.641,0.95-0.95c-0.07-0.11-0.14-0.21-0.21-0.32c-4.63-6.63-8.69-13.8-10.16-22c-1.35-7.54-3.65-14.82-5.83-22.14
		c-2.64-8.86-4.41-17.811-2.24-27.03c1.57-6.68,2.71-13.39,3.35-20.17c0.78-0.4,1.34-1.13,1.43-2.44
		c-0.23-0.649-0.6-1.149-1.1-1.489c0.2-2.971,0.3-5.96,0.3-8.971c0-18.86,9.81-32.88,23.53-44.57c3.24-2.76,7.2-4.82,12.11-6.25
		c-0.76,3.32-5.32,5.18-1.89,7.65c2.45,1.78,5.28-0.02,7.53-1.92c-1.49-1.74-3.22,0.86-4.8-0.81c3.42-2.7,4.94-6.18,4.24-10.51
		c-0.76-4.72-3.91-6.16-7.76-3.29c-1.51,1.12-2.99,2.07-4.82,2.44c-0.84,0.17-1.79,0.16-2.23-0.64c-0.47-0.87,0.13-1.54,0.89-2.02
		c7.77-4.92,11.17-12.34,12.06-21.18c1.18-0.03,2.17,0.18,2.1,1.699c-1.441,0.542-1.277,1.505-0.216,2.045
		c1.512,0.77,1.324-0.786,1.653-1.565c0.001,0,0.002,0,0.003,0.001c1.43,0.46,1.88,1.66,1.23,2.74c-1.42,2.37-1.46,5.1-2.33,7.59
		c-1.43,4.07,1.86,10.89,6.06,12.67c-0.055-0.464-0.113-0.935-0.171-1.402c0.059,0.468,0.117,0.937,0.175,1.405
		c0.375,0.584,0.592,2.065,1.541,0.962c2.365-2.749,5.471-2.296,8.36-2.057c3.635,0.302,7.221,1.181,10.828,1.81
		c-4.18-4.023-9.17-5.311-14.471-4.176c-3.473,0.743-4.734-0.148-4.547-3.529c-0.255-0.108-0.511-0.215-0.767-0.323
		c0.257,0.107,0.513,0.214,0.771,0.321c6.89-0.7,8.55-2.91,7.31-9.61c-0.41-2.26-1.94-4.82,1.3-6.36c0.23-0.44,0.44-0.89,0.66-1.33
		c0-0.003,0.001-0.004,0.003-0.006c0.001,0,0.003,0,0.004,0c-0.221,0.444-0.442,0.89-0.663,1.337
		c1.402,2.477,2.771,0.453,4.105-0.066c2.448-0.952,4.204,0.029,5.537,1.975c1.632,2.381-0.129,2.976-1.937,3.833
		c-1.291,0.612-2.288,1.987,0.13,2.573c3.532,0.856,2.688,2.634,1.146,4.621c-1.177,1.516-1.364,3.039,0.029,4.442
		c1.432,1.443,2.957,0.823,4.547,0.068c1.392-0.661,2.569-1.487,3.406-2.764c1.032-1.576,2.062-3.23,4.308-1.979
		c1.412,0.786,3.063,1.502,3.083,3.524c0.024,2.423-1.729,2.911-3.615,3.221c1.938,3.074,1.354,6.303,0.586,9.543
		c2.303,0.153,4.153-0.799,5.629-2.465c2.683-3.027,4.285-1.665,5.795,1.205c2.158,4.104,1.954,8.179,0.246,12.321
		c1.468,2.532,3.691,2.671,4.827,0.317c1.589-3.294,4.545-5.421,6.201-8.55c-0.415-7.593,5.202-5.03,9.509-5.035
		c-1.508-3.758-4.325-3.511-7.027-3.505c-3.974,2.022-4.986,5.936-6.253,9.709c-0.355,1.061-0.698,2.451-2.132,2.376
		c-1.704-0.089-1.281-1.666-1.376-2.702c-0.298-3.255-1.625-6.106-3.589-8.588c-1.473-1.861-2.264-3.51-1.05-5.832
		c1.456-2.785,3.096,0.003,4.648-0.256c1.055-0.176,2.237,0.415,3.363,0.663c3.019-1.858,6.326-3.208,8.896-5.846
		c1.399-1.437,3.265-0.963,4.986,0.13c2.965,1.882,4.971,4.13,4.846,7.964c-0.107,3.271-2.447,6.236-1.203,9.646
		c4.605,1.01,5.385-3.407,7.801-5.502c-1.494,0.409-2.986,0.817-4.51,1.234c-0.598-1.59-0.463-2.945,0.48-4.203
		c-0.129-0.813-0.377-1.626-0.369-2.437c0.049-4.819-2.775-7.439-6.742-9.496c-4.164-2.159-6.901-0.268-9.538,2.647
		c-0.538,0.595-1.362,0.868-2.291,0.14c0.734-4.918,3.683-9.991-0.334-14.845c-0.263-0.162-0.528-0.315-0.796-0.461
		c0.268,0.146,0.533,0.3,0.796,0.461c0.249-2.237,1.262-3.263,3.57-2.268c2.496,1.075,4.998,2.141,7.497,3.21
		c0.229,2.024,0.658,4.422,2.861,4.628c1.945,0.182,3.801-1.762,4.32-3.526c1.217-4.132,3.863-7.495,5.445-11.396
		c-0.646-2.067-2.49-2.726-4.186-3.56c2.227,4.547-0.641,8.332-1.848,12.366c-0.801-0.194-1.6-0.388-2.4-0.581
		c-0.406-0.311-0.814-0.621-1.221-0.931c0.1-0.863-0.135-1.572-0.938-2.017c-0.216-0.091-0.437-0.17-0.663-0.241
		c0.226,0.071,0.447,0.15,0.663,0.241c-0.047-0.662-0.092-1.323-0.139-1.985c1-0.383,1.408-1.135,1.354-2.175
		c-0.164-4.146-3.125-6.102-6.448-6.892c-4.775-1.136-6.968,2.621-9.096,6.024c-1.161-0.024-2.322-0.048-3.482-0.071
		c3.27-7.175,0.818-14.514-4.175-17.069c-2.218,0.483-3.975-0.847-5.901-1.504c-1.244,2.8-0.68,6.264-3.107,8.628
		c0.001-0.002,0.002-0.004,0.003-0.006c0,0-0.113,0.12-0.113,0.119c0.024-0.014,0.05-0.026,0.075-0.04
		c-0.84,2.085-2.769,2.785-4.659,3.198c-2.021,0.441-3.604-0.742-4.41-2.532c-0.808-1.795,0.555-2.135,1.984-2.555
		c2.479-0.729,1.736-3.063,1.672-4.659c-0.251-6.229-5.924-12.21-12.488-13.526c4.089,6.609,4.117,13.891,3.88,21.226
		c0.234-7.336,0.206-14.619-3.884-21.224c-1.55-0.81-3.11-1.61-4.67-2.42c-1.53,0.5-3.05,1.01-4.58,1.51
		c-2.33-0.48-3.73,1.74-5.8,2.01c-1.87,2.12-2.51,4.27-1.32,7.14c1.45,3.53-1.18,6.58-1.96,9.84c-0.19,0.81-1.01,1.31-1.92,1.19
		c-1.3-0.17-1.44-1.18-1.29-2.2c0.29-1.96,0.6-3.94-0.02-5.85c-0.3-0.93-0.6-2.44-1.97-1.62c1.17-1.42-0.93-1.47-1.58-2.14
		c-0.33,1.13-0.29,2.1,0.94,2.57c-5.57,2.7-9.91,2.7-12.13-0.02c-3.34-0.03-2.59,1.49-1.32,3.35c3.62,5.29,0.96,13.4-5.04,15.33
		c-0.74,0.24-1.59,0.35-2.24-0.47c-0.85-1.06,0.24-1.5,0.68-1.92c3.76-3.54,2.19-6.92-0.45-10.03c-2.3-2.7-7.58-2.81-10.83-0.55
		c-4.09,2.85-5.07,3.2-9.15,3.19c3.11-6.46,9.71-9.3,14.04-14.34c5.719,2.74,12.018,0.831,17.557-5.327
		c0.956-0.445,1.911-0.891,2.867-1.336c1.493-4.742,3.417-9.154,7.219-12.673c5.2-4.811,8.482-4.261,11.962,2.42
		c0.618-0.047,1.236-0.094,1.854-0.141c0.848,1.836,1.528,1.408,2.124-0.158c0.958-0.169,1.917-0.338,2.875-0.507
		c0.718-1.636,1.495-3.25,2.144-4.913c2.171-5.568,4.671-11.461,0.022-16.673c-2.958-3.317-4.17-6.483-3.175-10.653
		c-3.339,1.688-4.008,6.241-0.652,9.189c5.966,5.24,4.705,11.004,2.235,17.116c-0.499,1.234-1.001,2.69-2.654,2.499
		c-2.053-0.236-1.263-1.899-1.257-3.12c0-0.166,0.036-0.331,0.036-0.497c0.043-10.429-3.111-12.571-13.191-8.234
		c0.97-5.726,3.92-11.569-1.751-16.104c-2.453-1.471-5.58,1.898-7.956-1.072c-0.155-0.193-1.253,1.413-1.078,2.396
		c0.282,1.588,1.307,3.157,2.954,2.739c3.109-0.789,5.74-0.985,6.582,2.808c0.849,3.828-0.738,6.768-3.937,8.956
		c-1.146,0.785-3.113,1.356-2.301,3.268c0.608,1.433,2.306,0.935,3.602,0.998c2.571,0.127,4.921-0.303,6.933-2.134
		c1.654-1.506,3.765-2.918,5.704-0.923c2.258,2.322,3.034,5.5,2.741,8.725c-0.106,1.164-1.612,1.465-2.386,0.761
		c-3.978-3.616-8.129-2.351-12.345-0.698c-1.097,1.474-1.266,3.855-3.862,3.859c-2.036,0.003-1.529,1.662-1.814,2.84
		c-0.642,2.655-0.79,5.565-3.501,7.223c0,0,0-0.001,0-0.001c-0.52-0.43-1.029-0.859-1.539-1.299
		c0.844-3.785-1.814-7.909-5.563-8.631c-5.191-0.999-10.674,1.601-11.462,5.307c-0.319,1.5,0.441,2.113,1.504,2.694
		c-0.31,1.609-0.63,3.209-0.95,4.809c-2.22,2.34-2.76,5.57-4.35,8.24c-0.74,1.24-1.76,2.4-3.15,1.76c-1.41-0.65-0.4-1.97-0.08-3.04
		c1.37-4.55-1.11-10.76-5.09-13.33c-2.88-1.85-5.39-1.17-7.63,0.92c-2.8,2.63-6.16,3.06-9.73,2.87c-1.05-0.06-1.98-0.57-2.13-1.71
		c-0.09-0.69,0.45-1.34,1.19-1.31c6.67,0.33,7.63-5.23,9.86-9.49c-0.48-1.56-0.39-3.49-1.87-4.49c-3.69-2.48-1.67-4.85,0.14-7
		c2.01-2.41,4.28-1.63,6.63-0.13c3.45,2.2,5.43,4.83,3.78,9.1c-0.59,1.51-0.54,2.99,1.02,3.94c1.9,1.14,3.1-0.18,4.3-1.36
		c3.85-3.77,5.28-12.34,1.6-16.57c-2.99-3.43-2.57-5.85-0.53-9.03c0.58-0.91,1.23-2.02-0.07-3.39c-3.08,3.71-3.6,9.37-9.26,11.64
		c5.66,0.36,9.66,1.88,9.37,8.24c-0.14,2.98-0.55,5.44-4.52,7.6c1.57-6.96-1.26-10.99-6.52-13.57c-6.12-1.12-9,2.97-11.75,7.29
		c-0.15-0.15-0.3-0.29-0.44-0.45c0.65-5.15-1.65-8.67-6.24-10.68c-1.28-0.57-1.21-1.28-1.11-2.26c0.61-5.71-2.19-9.28-7.02-11.9
		c-3.98-2.15-7.27-5.92-12.48-4.74c2.65-3.28,5.39-6.52,8.2-9.68c0.79-0.89,1.59-1.77,2.39-2.65c1.1-1.22,2.22-2.42,3.37-3.63
		c0.64-0.68,1.28-1.35,1.95-2.04c1.48-1.54,2.99-3.05,4.77-4.81c0.89-0.88,1.79-1.75,2.67-2.6c1.51-1.44,3.04-2.86,4.58-4.27
		c0.27,1.29,0.25,2.62,0.25,3.95c0,1.17,0.04,2.41,1.32,2.91c1.59,0.62,2.3-0.65,3.17-1.65c1.97-2.26,3.03-4.96,3.91-7.77
		c-0.08-0.64-0.17-1.29-0.25-1.93c-0.45-0.61-0.99-1.11-1.57-1.53c3.24-2.78,6.53-5.45,9.85-8.03l0.54-0.41
		c0.05,0.05,0.08,0.11,0.12,0.16c0.68,1,0.45,1.81-0.07,2.7c0.57,0.2,1.15,0.4,1.73,0.6c5.51-5.19,5.51-5.19,8.16,2.13
		c4.77,0.91,4.36-3.38,5.61-5.84c0.21-0.42-0.5-2.22-1.82-2.57c-1.42-0.38-1.65,0.56-1.69,1.65c0,0,0.001,0,0.001,0
		c-0.346,0.275-0.691,0.55-1.037,0.825c-0.017,0.17-0.039,0.345-0.054,0.519c0.015-0.172,0.035-0.346,0.05-0.515
		c-1.54-1.42-2.58-3.37-4.15-4.77c2.1-1.52,4.24-3.01,6.39-4.47c0.63,2.08,1.62,3.43,4.35,2.77c5.43-1.3,10.81-0.17,16.23,0.51
		c6.89,0.87,11.38,6.82,18.02,8.08c0.72-0.62,1.96-1.18,2.04-1.88c0.13-1.19-1.17-1.3-2.18-1.46c-0.79-0.13-1.66-0.26-2.34-0.66
		c-9.48-5.64-19.82-7.83-30.75-7.69c-1.28,0.01-2.08-0.59-2.66-1.49c0.15-0.1,0.29-0.2,0.44-0.29C180.63,25.22,231.58,10,284.2,10
		c147.99,0,268.39,120.4,268.39,268.39C552.59,328.87,538.6,377.77,512.04,420.3z M387.05,308.62c-5.22,0.65-5.47,0.2-4.45-7.76
		C388.57,301.08,386.54,305.47,387.05,308.62z M388.21,419.53c-0.8-0.46-1.69-1.33-1.9-2.17c-1.579-6.42-3.01-12.89-4.79-20.69
		c6.561,3.28,11.921,5.921,17.23,8.65c0.84,0.43,1.83,1.12,2.16,1.93c3.17,7.79,6.22,15.63,9.77,24.65
		C402.4,427.36,395.28,423.49,388.21,419.53z M402.24,429.459c-0.2,0.4-0.41,0.801-0.61,1.19c-4.189-3.48-12.14-0.17-13.43-8.9
		C392.88,424.32,397.56,426.89,402.24,429.459z M369.86,336.89c-6.271-0.141-6.9-1.4-4.99-9.61
		C371.59,328.07,368.82,333.31,369.86,336.89z M364.4,338.54c6.22,1.221,7.08,3.061,6.31,12.94
		C363.18,350.51,363.18,350.51,364.4,338.54z M372.73,308.77c-0.44,0-1.29-3.87-1.62-5.99c-0.221-1.4,0.17-2.89,0.279-4.3
		c4.271-0.851,4.49,1.53,3.801,4.26C374.64,304.919,377.02,308.49,372.73,308.77z M375.91,327.74c-6.84,0.09-4.33-4.7-5.26-8.36
		C377.15,320.06,375.16,324.4,375.91,327.74z M377.28,339.1c-6.12-0.34-6.521-1.03-5.641-9.88
		C378.57,330.12,376.41,335.29,377.28,339.1z M377.14,299.61c0.931-0.08,1.86-0.15,2.79-0.22c0.15,2.93,0.351,5.87,0.38,8.81
		c0.011,0.311-1.05,0.97-1.47,0.86c-0.64-0.15-1.6-0.811-1.63-1.3C377.05,305.05,377.14,302.33,377.14,299.61z M401.16,337.07
		c3.75,3.35,7.5,6.7,11.88,10.61c-7.74,0.66-10.09-1.16-13.23-9.25C400.26,337.98,400.71,337.52,401.16,337.07z M396,325.6
		c1.96,3.27,3.91,6.55,6.31,10.55C395.54,334.89,396.72,329.65,396,325.6z M417.79,365.09c-13.13,0.02-14.79-10.4-19.73-17.341
		C407.92,349.23,410.26,358.98,417.79,365.09z M387.9,372.56c-12.681-3.11-13.931-4.78-13.811-17
		C385.47,355.43,383.69,365.58,387.9,372.56z M385.08,358.83c6.21,0.67,11.3,2.221,13.28,9.03c1.029,3.58,3.12,6.85,4.8,10.41
		C390.18,377.7,387.09,368.91,385.08,358.83z M392.29,384.57c1.42,6.021,4.32,11.7,7.07,18.86c-6.471-3.25-11.78-5.84-16.99-8.62
		c-0.89-0.47-1.67-1.72-1.9-2.74c-1.5-6.76-2.85-13.56-4.34-20.8C384.72,372.73,390.29,376.11,392.29,384.57z M391.17,376.9
		c8.09,2.41,14.88,4.3,17.94,12.729c2.859,7.881,7.14,15.24,11.42,24.141c-6.641-3.271-11.971-5.86-17.261-8.53
		c-0.689-0.35-1.449-1-1.729-1.689C398.14,394.94,394.82,386.3,391.17,376.9z M398.13,362.86c4.58,0.3,8.09,1.27,10.561,5.21
		c3.52,5.63,7.42,11.01,11.329,16.75C405.61,384.459,402.77,373.18,398.13,362.86z M409.91,366.12c5.77,0.98,10.39,2.11,13.87,6.78
		c5.25,7.05,11.16,13.61,17.01,20.66C423.75,391.76,417.81,378.41,409.91,366.12z M403.39,361.41
		c-10.319-0.71-8.689-9.729-12.77-15.31C394.92,346.81,398.8,351.709,403.39,361.41z M394.07,358.22
		C383.8,357.669,382.32,356,380.56,343.3C391.67,342.8,390.16,352.52,394.07,358.22z M378.89,331.44
		c7.28,0.16,6.591,5.99,8.351,10.13C379.25,341.72,378.76,340.87,378.89,331.44z M380.61,354.54c-8.11-1.029-9.15-2.779-8.091-13.51
		C378.64,341.669,379.17,342.54,380.61,354.54z M364.25,352.62c7.97,0.99,9.07,2.82,8.55,14.181
		C361.23,363.4,363,365.14,364.25,352.62z M375.35,377.12c1.03,4.96,2.061,9.91,3.311,15.9c-5.36-2.66-9.69-4.7-13.88-6.98
		c-0.811-0.439-1.561-1.79-1.58-2.75c-0.15-5.58-0.07-11.16-0.07-16.85C372.97,368.1,373.61,368.69,375.35,377.12z M363.12,387.419
		c5.54,2.801,10.27,5.091,14.89,7.601c0.88,0.479,1.61,1.729,1.86,2.76c1.46,6.1,2.75,12.23,4.36,19.53
		c-7.131-3.891-13.48-7.25-19.69-10.86c-0.84-0.49-1.33-2.21-1.36-3.38C363.03,398.26,363.12,393.45,363.12,387.419z M363.27,407.55
		c7.87,6.729,18.811,7.13,23.131,16.689c-0.21,0.5-0.431,1-0.65,1.5c-6.98-1.59-13.97-3.11-20.91-4.86
		c-0.71-0.18-1.439-1.76-1.5-2.739C363.14,415.169,363.27,412.18,363.27,407.55z M403.5,408.6c13.33,1.84,21.66,11.12,28.71,32.399
		c-6.12-2.39-11.39-4.33-16.54-6.56c-1.22-0.521-2.46-1.82-2.979-3.07C409.53,423.87,406.57,416.28,403.5,408.6z M422.29,413.11
		c-4.61-9.57-9.18-19.15-14.15-29.55c8.83,2.62,16.04,5.55,20.74,13.51c5.3,8.99,11.87,17.24,17.87,25.82
		c0.91,1.3,1.73,2.67,1.93,4.92c-8.22-4.11-16.46-8.181-24.63-12.37C423.26,415.03,422.71,413.97,422.29,413.11z M427.71,391.66
		c7.83,3.3,16.79,4.32,21.91,12.44c2.71,4.29,6.96,7.939,8.45,12.55c1.46,4.52,0.319,9.89,0.319,14.89
		c-0.59,0.32-1.18,0.641-1.77,0.971C445.92,419.74,437.24,405.47,427.71,391.66z M450,401.44c8.39,1.78,8.7,2.14,7.99,9.77
		C455.04,407.6,452.71,404.75,450,401.44z M457.91,401.629c-17.16-4.079-22.351-20.51-34.66-31.279
		c12.14,1.51,20.66,6.229,28.54,13.55C457.36,389.07,459.68,394.08,457.91,401.629z M458.02,387.36c-3.88-3.51-7.109-6.45-10.8-9.8
		C457.48,379.22,458.65,380.23,458.02,387.36z M422.85,355.33c0.44-0.64,0.87-1.29,1.301-1.93c9.88,7.55,19.76,15.1,30.59,23.39
		C439.36,374.919,432.81,362.73,422.85,355.33z M437.44,370.68c-11.971-0.101-21.46-6.9-29.521-20.86
		C421.83,351.78,427,364.02,437.44,370.68z M420.65,351.919c-3.65-3.14-7.29-6.279-10.94-9.409c0.521-0.591,1.04-1.17,1.56-1.761
		c3.551,3.221,7.101,6.431,10.641,9.65C421.49,350.9,421.07,351.41,420.65,351.919z M399.6,326.51
		c6.49,1.529,7.301,8.239,12.46,12.81C403.53,337.82,402.32,331.48,399.6,326.51z M394.64,315.56c-0.319-0.84,1.101-2.351,2.29-4.67
		c1.78,5.399,2.99,9.09,4.44,13.489C395.49,323.61,395.89,318.82,394.64,315.56z M401.5,345.56c-7.59,0.03-7.04-5.26-8.85-10.101
		C398.54,336.93,398.25,342.129,401.5,345.56z M392.75,343.27c-5-0.92-4.04-5.42-6.24-9.66
		C392.72,335.23,390.99,340.34,392.75,343.27z M383.49,322.83c7.17,0.63,4.939,5.74,6.38,9.221
		C383.93,331.4,385.48,326.73,383.49,322.83z M388,320.85c-4.79-0.07-4.79-0.07-4.78-5.181C388.89,313.79,387.95,317.61,388,320.85z
		 M383.61,329.94c-6.19-0.92-6.74-1.85-5.801-8.67C383.95,321.55,382.02,326.49,383.61,329.94z M371.04,276.35
		c3.33,4.189,6.66,8.39,9.99,12.58C373.67,287.98,373.68,281.15,371.04,276.35z M374.03,287.83c-7.45-1.21-8.84-3.81-7.05-12.739
		C369.48,279.6,371.55,283.36,374.03,287.83z M366.85,297.129c0.7,0.131,1.4,0.261,2.11,0.4c0,2.93,0.1,5.87-0.08,8.8
		c-0.04,0.7-0.92,1.601-1.63,1.9c-0.4,0.17-1.83-0.75-1.79-1.07C365.8,303.81,366.36,300.47,366.85,297.129z M368.62,325.91
		c-6.16-0.34-4.16-4.41-3.97-8.33C369.44,319.1,369.56,319.4,368.62,325.91z M363.18,306.86c-0.069,0.38-1.399,0.95-1.88,0.75
		c-0.55-0.22-1.21-1.25-1.109-1.83c0.5-3.12,1.21-6.21,1.85-9.32c0.85,0.11,1.7,0.21,2.55,0.311
		C364.15,300.14,363.76,303.52,363.18,306.86z M362.15,324.37c-2.091-0.6-3.78-1.09-5.86-1.7c0.43-2.449,0.82-4.67,1.2-6.869
		C363.18,316.169,363.18,316.169,362.15,324.37z M240.96,395.47c3.78-2.66,7.5-5.41,11.52-8.311c1.35,3.71,2.65,7.061,3.75,10.47
		c0.24,0.771,0.07,2.091-0.45,2.601c-3.42,3.38-6.87,6.77-10.57,9.82c-2.64,2.18-4.94,1.71-6.89-1.53
		C233.57,400.65,233.47,400.75,240.96,395.47z M233.1,398.76c-0.63-5.94-1.19-10.7-1.57-15.471c-0.05-0.63,0.65-1.58,1.27-1.979
		c6.38-4.13,12.81-8.181,19.63-12.51c0,5.29,0.1,9.869-0.08,14.439c-0.04,0.96-0.91,2.15-1.75,2.78
		C245.3,389.99,239.89,393.84,233.1,398.76z M254.43,382.53c-1.82-12.65,0.38-16.92,10.79-21.43
		C268.35,373.34,267.23,375.62,254.43,382.53z M268.11,375.01c1.6,3.02,3.02,5.729,3.94,7.479c-4.53,5.16-8.76,9.97-13.54,15.41
		c-0.88-2.11-1.36-3.16-1.76-4.23c-2.84-7.59-2.83-7.59,3.62-12.59C262.84,379.15,265.3,377.22,268.11,375.01z M257.74,401.16
		c2.06,2.65,3.95,5.08,6.69,8.61c-5.75,0.25-10.43,0.46-16.58,0.729C251.79,406.78,254.61,404.11,257.74,401.16z M259.39,400.05
		c4.8-5.021,9.25-9.671,14.09-14.73c3.38,3.92,6.08,7.05,9.29,10.76c-3.64,4.08-7.16,8.431-11.2,12.221
		c-0.98,0.92-4.34,0.729-5.49-0.261C263.5,405.83,261.61,402.81,259.39,400.05z M303.89,371.54c2.92,2.301,5.49,4.33,8.54,6.74
		c-2.239,3.67-4.21,6.89-6.54,10.72c-3.149-2.89-5.899-5.409-8.89-8.149C299.38,377.64,301.52,374.75,303.89,371.54z M295.88,379.25
		c-8.92-9.569-9.18-8.04-0.66-15.949c2.19,2.18,4.38,4.359,7,6.97C300.21,373.129,298.08,376.14,295.88,379.25z M313.95,379.53
		c3.92,2.59,7.46,4.93,11.359,7.51c-1.859,3.9-3.63,7.61-5.819,12.181c-4.28-3.16-7.98-5.891-12.08-8.91
		C309.63,386.65,311.65,383.31,313.95,379.53z M315.05,377.86c2.28-4.03,4.431-7.83,6.83-12.08c3.63,2.18,6.59,3.96,9.95,5.97
		c-1.86,4.391-3.63,8.58-5.69,13.45C322.27,382.64,318.89,380.4,315.05,377.86z M322.87,364.16c2.21-4.18,4.27-8.06,6.56-12.399
		c3.17,1.47,5.71,2.649,8.41,3.899c-0.439,1.49-0.72,2.771-1.189,3.98c-1.271,3.229-2.61,6.43-4.101,10.109
		C329.26,367.85,326.28,366.129,322.87,364.16z M330.35,350.06c1.46-2.931,2.67-5.38,4.04-8.12c2.57,0.96,4.83,1.8,7.681,2.87
		c-1.15,3.149-2.101,5.74-3.28,8.97C335.88,352.5,333.29,351.36,330.35,350.06z M335.34,340.28c1.5-3.37,2.87-6.41,4.36-9.75
		c2.229,0.73,4.08,1.33,6.47,2.12c-0.57,1.83-1.05,3.51-1.63,5.16c-0.53,1.55-1.17,3.069-1.92,5
		C340.29,342,338.16,341.26,335.34,340.28z M340.88,328.72c0.5-1.44,0.82-2.53,1.26-3.561c0.521-1.2,1.15-2.34,1.86-3.78
		c1.5,0.41,2.87,0.78,4.84,1.311c-0.649,2.61-1.25,5.07-2.01,8.15C344.41,329.98,342.75,329.39,340.88,328.72z M345.03,319.43
		c1.239-2.63,0.25-6.75,6.63-6.141C349.18,316.04,351.95,322.1,345.03,319.43z M345.01,304.2c1.99-3.02,0.19-9.02,7.44-8.99
		C349.48,298.78,351.38,304.709,345.01,304.2z M345.46,312.4c-0.88,2.08-1.69,3.979-2.65,6.27c-1.649-0.489-3.109-0.93-5.119-1.54
		C339.7,314.1,339.63,309.2,345.46,312.4z M341.78,320.9c-0.86,2.1-1.721,4.21-2.86,6.97c-1.979-0.68-3.84-1.31-5.74-1.96
		C336.39,318.41,336.39,318.41,341.78,320.9z M337.65,329.98c-0.601,1.479-1.16,2.99-1.82,4.46c-0.68,1.5-1.44,2.96-2.44,4.99
		c-2.399-1.08-4.31-1.94-6.189-2.78C330.64,327.28,331.25,326.879,337.65,329.98z M332.51,341.15c-1.35,2.74-2.56,5.17-3.96,7.99
		c-2.439-1.28-4.569-2.4-7.37-3.86c1.67-2.68,2.95-4.75,4.44-7.16C327.84,339.09,329.89,339.99,332.51,341.15z M319.67,344.16
		c-2.22-1.399-4.2-2.64-6.61-4.16c1.73-2.42,2.96-4.14,4.41-6.18c2.04,1.1,3.86,2.09,6.221,3.37
		C322.33,339.55,321.15,341.59,319.67,344.16z M320.17,346.91c2.53,1.36,4.79,2.561,7.521,4.021c-2.21,4.1-4.2,7.819-6.521,12.13
		c-2.979-2.09-5.24-3.681-7.8-5.48C315.74,353.86,317.85,350.56,320.17,346.91z M320.23,364.79c-2.301,4.03-4.351,7.61-6.7,11.721
		c-2.92-2.271-5.58-4.351-8.54-6.66c2.5-3.681,4.8-7.07,7.25-10.65C314.97,361.11,317.39,362.8,320.23,364.79z M303.97,367.93
		c-2.56-2.351-4.91-4.5-7.43-6.811c2.5-3.04,4.7-5.72,7.38-8.99c2.18,1.91,4.23,3.7,6.74,5.9
		C308.22,361.64,306.09,364.79,303.97,367.93z M300.88,345.23c2.05-2.19,4.271-4.561,7.17-7.64c3.23,6-2.8,7.56-4.03,12.52
		C302.6,347.9,301.91,346.83,300.88,345.23z M302.48,350.75c-2.341,2.88-4.57,5.62-7.101,8.74c-1.38-1.84-2.43-3.25-3.47-4.649
		c2.7-2.811,4.95-5.141,7.38-7.671C300.34,348.34,301.28,349.4,302.48,350.75z M293.89,361.07c-2.18,2.46-4.229,4.78-6.29,7.12
		c-5.21-5.72-5.01-6.57,2.81-11.99C291.51,357.75,292.62,359.3,293.89,361.07z M294.48,381.07c-3.36,4.35-6.661,8.61-10.411,13.46
		c-2.68-3.12-5.17-5.729-7.24-8.65c-0.55-0.779-0.3-2.869,0.38-3.68c2.9-3.399,6.09-6.54,9.55-10.16
		C289.32,375.03,291.73,377.86,294.48,381.07z M284.24,397.34c3.51,2.819,6.73,5.409,10.67,8.579c-6.03,7.971-13.58,2.03-20.46,2.61
		C277.68,404.85,280.9,401.16,284.24,397.34z M285.49,395.87c3.55-4.569,6.79-8.74,10.33-13.3c3.029,2.72,5.81,5.23,9.02,8.12
		c-3,4.54-5.74,8.68-8.91,13.479C292.32,401.3,289.04,398.69,285.49,395.87z M306.3,391.959c4.141,3.04,7.97,5.851,12.29,9.021
		c-1.28,2.35-2.28,4.229-3.33,6.08c-2.91,5.12-5.13,5.79-10.29,2.89c-2.42-1.359-4.7-2.979-7.42-4.729
		C300.55,400.669,303.34,396.44,306.3,391.959z M320.1,402.27c10.75,5.62,10.75,5.62,8.95,11.68c-4.45-0.6-8.99-1.2-14.25-1.91
		C316.71,408.52,318.41,405.39,320.1,402.27z M321.15,400.31c1.989-4.15,3.83-7.98,5.819-12.11c8.28,4.26,8.42,4.98,3.641,17.91
		C327.5,404.2,324.49,402.36,321.15,400.31z M327.82,386.209c1.91-4.5,3.699-8.699,5.479-12.88c5.04,1.32,5.19,4.84,0.67,16.391
		C331.99,388.59,330.07,387.49,327.82,386.209z M341.4,357.32c-0.971,4.87-1.94,9.73-3.021,15.14
		C334.2,370.33,335.53,363.39,341.4,357.32z M339.13,407.86c0.58-3.71,1.45-7.37,2.34-11.67c6.391,3.49,12.351,6.7,18.24,10.03
		c0.7,0.399,1.36,1.51,1.4,2.319c0.149,3.61,0.06,7.23,0.06,11.221c-8.24-0.011-14.6-4.681-21.25-8.42
		C339.2,410.94,338.96,408.99,339.13,407.86z M361.19,404.669c-6.311-3.409-12.08-6.47-17.771-9.68c-0.68-0.38-1.35-1.68-1.229-2.41
		c0.779-4.529,1.79-9.02,2.819-13.989c5.05,2.439,9.59,4.449,13.91,6.869c1.12,0.62,2.1,2.48,2.17,3.82
		C361.35,394.09,361.19,398.91,361.19,404.669z M347.6,377.51c-0.92-0.53-1.75-2.341-1.6-3.42c0.64-4.551,1.66-9.051,2.64-14.07
		c3.851,1.479,7.351,2.52,10.521,4.2c1.21,0.64,2.25,2.71,2.33,4.189c0.29,4.96,0.109,9.94,0.109,16.25
		C356.09,381.89,351.75,379.87,347.6,377.51z M361.12,361.93c-11.351-1.2-13.33-3.95-9.57-13.71
		C363.06,351.04,363.75,352.05,361.12,361.93z M361.64,348.52c-10.55-0.95-10.92-1.55-7.77-13.05
		C363.05,337.07,363.3,337.51,361.64,348.52z M354.13,333c0.561-2.8,1.03-5.17,1.49-7.47c6.84-0.29,7.37,0.57,6.07,9.85
		C359.19,334.59,356.77,333.83,354.13,333z M345.1,284.55c4.94-4.41,9.08-8.11,13.45-12.021
		C359.04,280.66,354.11,285.36,345.1,284.55z M336.92,284.25c5.11-3.46,10.22-6.93,15.33-10.39c0.26,0.38,0.52,0.76,0.78,1.14
		C347.7,278.15,345.16,285.37,336.92,284.25z M345.82,295.55c-1.181,2.77-2.311,5.43-3.61,8.479c-2.37-0.71-4.06-1.21-5.74-1.71
		C338.24,294.64,338.49,294.45,345.82,295.55z M334.17,300.97l-1.74,0.27c-0.399-1.28-1.51-3.02-1.04-3.74
		c0.851-1.31,2.641-2.02,4.04-2.979c0.38,0.359,0.761,0.72,1.141,1.08C335.77,297.39,334.97,299.18,334.17,300.97z M332.98,307.94
		c1.979,0.729,3.77,1.4,6.02,2.24c-1.08,2.16-2,3.979-3.11,6.199c-2-0.76-3.77-1.43-6.159-2.34
		C330.95,311.75,331.86,310.03,332.98,307.94z M334.67,318.55c-1.25,2.21-2.36,4.189-3.61,6.42c-2.159-0.92-3.93-1.67-5.689-2.42
		C328.29,315.15,328.42,315.09,334.67,318.55z M329.95,326.77c-1.73,2.99-3.271,5.64-5.15,8.899c-2.31-1.35-4.1-2.399-6.22-3.64
		c1.81-2.83,3.37-5.28,5.16-8.09C325.8,324.879,327.67,325.74,329.95,326.77z M319.75,307.9c-4.46-3.36-0.6-5.41-0.35-8.771
		c1.76,1.57,2.68,2.41,3.8,3.41C322.05,304.32,321,305.959,319.75,307.9z M318.6,321.35c-1.68,2.14-3.319,4.31-5.08,6.38
		c-0.17,0.2-1.409-0.09-1.63-0.46c-0.319-0.561-0.52-1.7-0.199-2.05c1.699-1.811,3.59-3.45,5.409-5.16
		C317.6,320.49,318.1,320.919,318.6,321.35z M311.96,341.64c2.24,1.479,4.12,2.729,6.44,4.26c-2.19,3.46-4.261,6.74-6.561,10.37
		c-2.33-1.95-4.3-3.61-6.6-5.54c1.189-1.67,2.189-3.13,3.24-4.561C309.54,344.74,310.64,343.35,311.96,341.64z M308.57,335.97
		c-2.051-2.15-2.98-3.12-4.811-5.03c2.78-0.94,4.7-1.58,6.61-2.22C309.86,330.77,309.35,332.83,308.57,335.97z M306.05,336.74
		c-2.13,2.3-4.18,4.521-6.28,6.78c-4.13-5.021-4.13-5.021,3.19-10.32C304.03,334.43,304.88,335.41,306.05,336.74z M297.91,345.16
		c-1.04,1.141-2.07,2.36-3.18,3.49c-1.131,1.16-2.351,2.24-3.54,3.36c-4.791-5.99-4.641-6.561,3.489-12.07
		C295.79,341.73,296.72,343.25,297.91,345.16z M287.34,342.45c-1.06-5.109,3.06-5.399,5.79-6.84
		C293.51,339.64,289.94,340.39,287.34,342.45z M282.69,359.34c-3.71-8.49-3.66-8.7,2.85-12.431
		C289.98,353.97,289.9,354.33,282.69,359.34z M281.46,363.74c4.8,5.96,4.79,5.95,0.2,10.98c-2.22,2.439-4.4,4.909-6.88,7.68
		c-5.82-8.05-5.81-8.14,0.28-13.29C277.19,367.32,279.33,365.53,281.46,363.74z M269.46,370.51c-3.64-9.771-2.23-12.78,8.88-18.23
		C280.96,362.6,279.65,365.209,269.46,370.51z M269.34,355.04c0.15-5.76,1.07-6.71,8.5-9.56
		C278.79,352.28,272.34,352.15,269.34,355.04z M260.94,353c-0.5-0.6-1-1.189-1.49-1.79c3.01-2.46,6.03-4.92,9.04-7.39
		c0.6,0.67,1.2,1.33,1.79,2C267.17,348.209,264.06,350.61,260.94,353z M266.32,352.04c0.61,5.721-0.05,6.49-10.05,11.471
		C257.58,355.87,257.67,355.76,266.32,352.04z M237.11,366.23c1.23-5.12,7.63-9.67,20.46-14.19
		C252.54,359.06,244.04,361.11,237.11,366.23z M238.12,367.59c5.34-3.03,10.71-6.011,16.76-9.4c-0.31,5.03-1.65,8.27-5.67,10.5
		c-5.65,3.13-10.98,6.84-16.57,10.38C232.12,373.19,233.59,370.169,238.12,367.59z M216,377.09c3.54-7.75,11.77-8.66,18.01-12.471
		C230.33,372.15,222.3,373.36,216,377.09z M216.2,379.95c4.61-2.59,9.22-5.17,14.67-8.24c-0.15,5.87-1.15,10.021-6.28,12.57
		c-4.87,2.42-9.33,5.64-14.09,8.58C209.56,387.02,211.6,382.55,216.2,379.95z M187.46,393.169c4.72-11.229,16.99-11.43,25.37-17.399
		C207.34,385.79,196.02,387.459,187.46,393.169z M190.7,394.12c5.95-3.3,11.91-6.58,17.93-9.899
		c1.84,13.37-10.24,14.689-17.12,20.409c0.23,0.41,0.46,0.811,0.69,1.221c4.72-2.66,9.43-5.32,14.88-8.391
		c0.3,3.62,0.54,6.381,0.79,9.4h-22.62C183.82,398.51,184.16,397.74,190.7,394.12z M187.933,190.708
		c1.79,2.005,3.648,3.976,3.489,6.958c-0.001,0-0.001,0.001-0.002,0.001c0.159-2.989-1.7-4.958-3.49-6.958
		c-1.523-0.511-1.674-1.782-1.645-3.027C186.259,188.93,186.411,190.199,187.933,190.708z M213.158,200.232
		c-0.026,0.035-0.052,0.07-0.081,0.105C213.106,200.302,213.132,200.267,213.158,200.232z M213.006,200.42
		c-0.03,0.035-0.062,0.069-0.094,0.103C212.944,200.489,212.976,200.455,213.006,200.42z M212.829,200.605
		c-0.033,0.033-0.067,0.065-0.103,0.098C212.761,200.671,212.796,200.638,212.829,200.605z M212.634,200.786
		c-0.036,0.031-0.071,0.062-0.108,0.092C212.563,200.848,212.598,200.817,212.634,200.786z M212.423,200.963
		c-0.036,0.028-0.071,0.057-0.108,0.084C212.352,201.02,212.387,200.991,212.423,200.963z M212.203,201.133
		c-0.034,0.025-0.068,0.05-0.102,0.075C212.135,201.184,212.169,201.159,212.203,201.133z M211.977,201.298
		c-0.028,0.021-0.056,0.04-0.084,0.06C211.92,201.338,211.948,201.318,211.977,201.298z M211.746,201.46
		c-0.014,0.009-0.028,0.019-0.042,0.028C211.718,201.479,211.731,201.469,211.746,201.46z M211.526,201.608
		c0.014,0,0.027,0.002,0.042,0.002C211.554,201.61,211.54,201.61,211.526,201.608C211.526,201.609,211.526,201.609,211.526,201.608z
		 M212.437,201.665C212.437,201.665,212.437,201.665,212.437,201.665C212.437,201.665,212.437,201.665,212.437,201.665z
		 M213.217,200.148c0.024-0.036,0.044-0.072,0.065-0.109C213.262,200.076,213.241,200.112,213.217,200.148z M213.327,199.958
		c0.018-0.037,0.032-0.075,0.045-0.112C213.359,199.883,213.345,199.92,213.327,199.958z M213.402,199.764
		c0.011-0.038,0.017-0.076,0.023-0.113C213.418,199.688,213.413,199.726,213.402,199.764z M213.437,199.569
		c0.002-0.039-0.001-0.077-0.004-0.116C213.436,199.492,213.439,199.531,213.437,199.569z M213.083,198.794
		c0.068,0.063,0.125,0.127,0.172,0.191C213.207,198.922,213.15,198.858,213.083,198.794z M213.293,199.05
		c0.027,0.043,0.056,0.086,0.075,0.129C213.349,199.136,213.32,199.093,213.293,199.05z M213.393,199.255
		c0.013,0.04,0.028,0.079,0.035,0.119C213.42,199.334,213.406,199.295,213.393,199.255z M206.849,200.746
		c0.397,1.184,1.304,1.518,2.443,1.463c0.666-0.159,1.331-0.316,1.997-0.475c0.31,1.244-0.314,3.202,2.093,2.883
		c3.076-0.408,4.284,1.399,4.472,3.959c0.228,3.105,0.301,6.496-2.887,8.261c-1.992,1.104-4.474,2.748-6.584-0.152
		c-2.205,1.925-0.843,4.803-1.884,7.053c-0.884,1.909-1.485,3.997-3.6,5.032c-1.486-1.285-0.381-2.631-0.564-3.827
		c-0.402-2.626-0.284-5.525-1.419-7.793c-1.275-2.548-7.007-3.788-1.485-7.708c0.365-0.259-0.693-1.37-1.465-1.701
		c-1.261-0.541-2.247-0.06-3.051,0.969c-1.292,1.651-1.48,3.677-1.95,5.611c-0.938,3.861-0.947,3.859-5.284,6.012
		c3.327-5.762,2.02-11.102-0.522-16.331c-0.682-0.324-1.363-0.649-2.044-0.974c0.023-0.248,0.058-0.485,0.104-0.71
		c-0.046,0.225-0.081,0.462-0.104,0.71c0.681,0.324,1.361,0.648,2.042,0.969c0,0.001,0.001,0.003,0.002,0.004
		c0.017,0.008,0.033,0.016,0.049,0.023l-0.003-0.005c0.001,0,0.002,0.001,0.004,0.002c0.02-0.076,0.04-0.151,0.06-0.227
		c4.063,0.605,5.388-2.499,6.933-5.304c-0.235-0.225-0.476-0.452-0.716-0.681c0.24,0.229,0.48,0.456,0.721,0.685
		C198.421,199.245,202.635,199.996,206.849,200.746z M215.049,202.219c0,0,0.001,0,0.001,0
		C215.05,202.219,215.05,202.219,215.049,202.219z M215.878,202.52c0.026,0.011,0.053,0.023,0.079,0.034
		C215.931,202.543,215.905,202.531,215.878,202.52z M216.693,202.875c0.079,0.037,0.155,0.08,0.233,0.119
		C216.849,202.956,216.772,202.913,216.693,202.875z M164.021,222.989c0.013,0.235,0.085,0.499,0.202,0.789
		C164.105,223.488,164.034,223.225,164.021,222.989z M172.636,193.078c0.015,0.021,0.03,0.041,0.045,0.062c0,0,0,0-0.001,0
		C172.667,193.12,172.65,193.098,172.636,193.078z M169.644,186.575c0.03-0.996,0.101-1.989,0.229-2.985
		C169.747,184.586,169.675,185.58,169.644,186.575z M172.93,201.44c0.01-0.09,0.03-0.18,0.05-0.27s0.04-0.17,0.07-0.26
		c0.02-0.06,0.04-0.12,0.06-0.18c0.04-0.1,0.08-0.21,0.13-0.32c0.014-0.032,0.039-0.066,0.054-0.098
		c-0.261,0.548-0.39,1.05-0.379,1.497c0-0.013-0.004-0.025-0.004-0.038C172.91,201.66,172.92,201.55,172.93,201.44z
		 M173.705,199.583c-0.03,0.047-0.059,0.094-0.087,0.14C173.646,199.676,173.675,199.629,173.705,199.583z M173.859,203.444
		c-0.079-0.047-0.145-0.1-0.209-0.154c-0.022-0.02-0.042-0.039-0.064-0.058C173.668,203.307,173.761,203.377,173.859,203.444z
		 M173.542,203.193c-0.031-0.027-0.065-0.055-0.092-0.083c-0.035-0.036-0.055-0.077-0.087-0.115
		C173.42,203.063,173.476,203.13,173.542,203.193z M173.24,202.831c-0.048-0.071-0.093-0.144-0.13-0.219
		C173.146,202.688,173.192,202.76,173.24,202.831z M173.053,202.474c-0.027-0.068-0.064-0.133-0.083-0.204
		c-0.014-0.051-0.012-0.114-0.021-0.171C172.972,202.229,173.006,202.354,173.053,202.474z M174.075,203.575
		c-0.022-0.013-0.053-0.022-0.075-0.035c-0.021-0.011-0.042-0.028-0.064-0.042C173.979,203.525,174.029,203.549,174.075,203.575z
		 M176.827,202.906c0.007-0.015,0.019-0.022,0.026-0.037C176.846,202.883,176.834,202.891,176.827,202.906z M177.015,202.648
		c0.02-0.017,0.048-0.021,0.069-0.035C177.063,202.627,177.035,202.631,177.015,202.648z M177.287,202.512
		c0.039-0.009,0.092,0.001,0.135-0.002C177.379,202.513,177.326,202.503,177.287,202.512z M177.65,202.508
		c0.075,0.012,0.167,0.05,0.252,0.077C177.818,202.558,177.726,202.521,177.65,202.508z M176.715,203.273
		c0.002-0.01,0.006-0.017,0.008-0.026C176.721,203.257,176.717,203.264,176.715,203.273z M176.689,204.296c0,0.001,0,0.002,0,0.004
		c-0.192-0.019-0.362-0.048-0.539-0.075C176.325,204.251,176.5,204.277,176.689,204.296z M178.113,202.648
		c0.172,0.072,0.361,0.17,0.57,0.295c1.077-0.376,2.152-0.587,3.225-0.588c-1.072,0.001-2.147,0.211-3.224,0.588
		c-0.042,0.071-0.083,0.141-0.125,0.211c0.042-0.07,0.083-0.141,0.125-0.211C178.474,202.818,178.285,202.721,178.113,202.648z
		 M188.363,199.683L188.363,199.683c-0.136,0.513-0.273,1.026-0.409,1.54C188.09,200.709,188.227,200.196,188.363,199.683z
		 M188.37,199.67c0.824-0.539,1.66-1.085,2.489-1.632c-0.83,0.547-1.659,1.094-2.489,1.64V199.67z M188.484,198.86
		c0.018-0.162,0.028-0.317,0.034-0.469c-0.003,0.08-0.001,0.156-0.008,0.239C188.51,198.707,188.499,198.783,188.484,198.86z
		 M188.524,198.207c0.001-0.382-0.039-0.729-0.116-1.046c0.006,0.026,0.014,0.052,0.021,0.079c0.03,0.13,0.05,0.26,0.07,0.39
		C188.518,197.813,188.524,198.007,188.524,198.207z M188.26,196.697c0.023,0.058,0.048,0.113,0.07,0.172
		c0.01,0.02,0.01,0.03,0.01,0.04c0.015,0.042,0.023,0.083,0.034,0.124C188.341,196.917,188.303,196.805,188.26,196.697z
		 M187.586,195.652c0.013,0.014,0.031,0.023,0.044,0.038c0.009,0.01,0.014,0.021,0.023,0.031
		C187.632,195.698,187.608,195.676,187.586,195.652z M188.03,196.226c0.003,0.005,0.007,0.009,0.01,0.014
		c0.06,0.1,0.11,0.2,0.16,0.31c0.003,0.006,0.005,0.013,0.008,0.019C188.155,196.45,188.095,196.335,188.03,196.226z
		 M185.364,201.792c0.012-0.037,0.019-0.079,0.032-0.115C185.383,201.713,185.376,201.755,185.364,201.792z M185.257,194.35
		c0.024,0.008,0.049,0.012,0.073,0.02c0.051,0.016,0.1,0.035,0.149,0.051C185.406,194.396,185.332,194.373,185.257,194.35z
		 M185.676,194.488c0.012,0.004,0.022,0.007,0.034,0.012c0.042,0.013,0.08,0.033,0.12,0.048
		C185.778,194.529,185.728,194.507,185.676,194.488z M184.362,194.116c0.006,0.001,0.012,0.002,0.018,0.003
		c0.003,0,0.006,0.001,0.009,0.002C184.38,194.12,184.371,194.118,184.362,194.116z M174.672,198.292
		c1.017-1.243,2.126-2.42,3.423-3.254C176.798,195.874,175.688,197.051,174.672,198.292z M175.977,204.201
		c-0.05-0.008-0.108-0.012-0.157-0.021c-0.135-0.026-0.259-0.058-0.385-0.089C175.607,204.132,175.786,204.169,175.977,204.201z
		 M175.337,204.068c-0.122-0.032-0.234-0.066-0.346-0.102C175.104,204.001,175.215,204.038,175.337,204.068z M174.755,203.891
		c-0.011-0.004-0.024-0.007-0.035-0.011c-0.019-0.006-0.031-0.017-0.049-0.023C174.7,203.868,174.726,203.88,174.755,203.891z
		 M174.604,198.377c0.023-0.028,0.045-0.056,0.068-0.084C174.649,198.321,174.627,198.349,174.604,198.377z M180.25,185.383
		c0.286-1.404,0.088-2.739-0.599-3.936C180.338,182.644,180.537,183.979,180.25,185.383z M221.408,194.718L221.408,194.718
		c1.834-0.153,3.576,0.003,5.219,0.493C224.983,194.722,223.242,194.564,221.408,194.718z M230.654,199.409
		c-3.351-1.024-7.616-0.235-9.242-4.683C223.038,199.174,227.304,198.384,230.654,199.409z M227.838,195.638
		c-0.385-0.158-0.776-0.295-1.173-0.414C227.062,195.343,227.453,195.48,227.838,195.638z M221.331,194.617L221.331,194.617
		c0.001-0.007,0.003-0.012,0.004-0.018C221.334,194.605,221.333,194.61,221.331,194.617z M217.605,195.315
		c0.026,0.022,0.053,0.035,0.079,0.055C217.658,195.35,217.632,195.337,217.605,195.315z M217.875,195.501
		c0.021,0.011,0.042,0.015,0.063,0.024C217.917,195.516,217.896,195.513,217.875,195.501z M218.145,195.604
		c0.015,0.003,0.029,0.002,0.044,0.005C218.174,195.607,218.16,195.608,218.145,195.604z M218.415,195.635
		c0.002,0,0.005-0.001,0.008-0.001C218.42,195.634,218.417,195.635,218.415,195.635z M228.042,195.734
		c0.327,0.141,0.652,0.287,0.971,0.457C228.695,196.022,228.37,195.875,228.042,195.734z M229.493,196.478
		c0.221,0.13,0.444,0.251,0.66,0.396C229.937,196.729,229.713,196.608,229.493,196.478z M217.415,195.116
		c-0.026-0.03-0.053-0.05-0.079-0.083C217.362,195.066,217.389,195.086,217.415,195.116z M204.136,182.588
		c-0.299,0.207-0.608,0.4-0.922,0.584C203.528,182.988,203.837,182.795,204.136,182.588z M203,183.292
		c-0.833,0.474-1.697,0.9-2.54,1.359C201.303,184.192,202.168,183.766,203,183.292z M149.411,160.958
		c-0.373,1.246-2.261,1.045-3.147,2.09c0.365,0.096,0.704,0.185,1.048,0.275c-0.346-0.09-0.688-0.18-1.052-0.274
		C147.145,162.002,149.032,162.201,149.411,160.958z M136.763,159.433c0.049,0.129,0.107,0.238,0.171,0.333
		c-0.064-0.096-0.124-0.206-0.174-0.336c-0.35-0.93,0.31-1.68,1.01-2.04c0.103-0.052,0.21-0.096,0.314-0.146
		c-0.104,0.051-0.208,0.099-0.312,0.151C137.071,157.75,136.408,158.502,136.763,159.433z M138.338,160.084
		c-0.26,0.124-0.534,0.172-0.791,0.116C137.803,160.255,138.077,160.207,138.338,160.084z M141.23,155.784
		c0.928-0.409,1.86-0.813,2.789-1.234c0.001,0.001,0.002,0.002,0.003,0.003C143.091,154.971,142.158,155.375,141.23,155.784z
		 M145.097,158.407c-0.563-0.045-1.126-0.083-1.686-0.09C143.971,158.324,144.533,158.362,145.097,158.407z M136.535,153.161
		c1.81-1.346,3.466-1.473,5.246-0.433C140.002,151.689,138.346,151.816,136.535,153.161z M141.825,152.751
		c0.036,0.021,0.073,0.051,0.109,0.073C141.898,152.802,141.861,152.772,141.825,152.751z M133.47,65.582
		c0.071,0.386-0.022,0.815-0.16,1.233C133.445,66.396,133.539,65.967,133.47,65.582z"/>
</g>
</svg>
