<?xml version="1.0" encoding="utf-8"?>
<!-- Generator: Adobe Illustrator 16.0.3, SVG Export Plug-In . SVG Version: 6.00 Build 0)  -->
<!DOCTYPE svg PUBLIC "-//W3C//DTD SVG 1.1//EN" "http://www.w3.org/Graphics/SVG/1.1/DTD/svg11.dtd">
<svg version="1.1" id="Layer_1" xmlns="http://www.w3.org/2000/svg" xmlns:xlink="http://www.w3.org/1999/xlink" x="0px" y="0px"
	 width="111.667px" height="112.667px" viewBox="0 0 111.667 112.667" enable-background="new 0 0 111.667 112.667"
	 xml:space="preserve">
<g>
	<g>
		<path fill="#FFFFFF" d="M55.835,108.833c-28.949,0-52.502-23.553-52.502-52.501c0-28.949,23.553-52.5,52.502-52.5
			c28.95,0,52.5,23.551,52.5,52.5C108.335,85.283,84.785,108.833,55.835,108.833z M55.835,8.832
			c-26.192,0-47.502,21.309-47.502,47.5c0,26.193,21.31,47.501,47.502,47.501c26.192,0,47.5-21.311,47.5-47.501
			C103.335,30.142,82.027,8.832,55.835,8.832z"/>
	</g>
	<g>
		<g>
			<path fill="#FFFFFF" d="M86.835,78.861h-62V33.805h62V78.861z M27.835,76.236h56V36.43h-56V76.236z"/>
		</g>
		<g>
			<polygon fill="#FFFFFF" points="55.835,57.777 25.327,35.951 27.341,34.194 55.835,54.579 84.328,34.194 86.341,35.951 			"/>
		</g>
	</g>
</g>
</svg>
