<?xml version="1.0" encoding="utf-8"?>
<!-- Generator: Adobe Illustrator 16.0.3, SVG Export Plug-In . SVG Version: 6.00 Build 0)  -->
<!DOCTYPE svg PUBLIC "-//W3C//DTD SVG 1.1//EN" "http://www.w3.org/Graphics/SVG/1.1/DTD/svg11.dtd">
<svg version="1.1" id="Layer_1" xmlns="http://www.w3.org/2000/svg" xmlns:xlink="http://www.w3.org/1999/xlink" x="0px" y="0px"
	 width="111.667px" height="112.667px" viewBox="0 0 111.667 112.667" enable-background="new 0 0 111.667 112.667"
	 xml:space="preserve">
<g>
	<path fill="#FFFFFF" d="M55.834,109.011c-28.949,0-52.502-23.553-52.502-52.502s23.553-52.5,52.502-52.5s52.5,23.551,52.5,52.5
		C108.334,85.46,84.784,109.011,55.834,109.011z M55.834,9.009c-26.192,0-47.502,21.309-47.502,47.5
		c0,26.193,21.31,47.502,47.502,47.502c26.191,0,47.5-21.31,47.5-47.502C103.334,30.318,82.026,9.009,55.834,9.009z"/>
</g>
<g>
	<path fill="#FFFFFF" d="M54.252,70.144l-0.069-1.891c0-3.383,0.571-6.217,1.715-8.504c0.793-1.587,2.461-3.745,5.005-6.475
		c1.726-1.843,2.857-3.343,3.395-4.497c0.536-1.155,0.805-2.409,0.805-3.763c0-2.566-0.818-4.748-2.455-6.545
		c-1.637-1.796-3.52-2.694-5.646-2.694c-2.175,0-4.016,0.825-5.524,2.477c-1.508,1.651-2.483,4.278-2.928,7.883L43.263,45.4
		c0.514-4.946,1.978-8.649,4.393-11.111s5.523-3.692,9.327-3.692c3.826,0,7.017,1.313,9.571,3.938
		c2.555,2.624,3.833,5.979,3.833,10.062c0,2.24-0.42,4.293-1.261,6.159c-0.84,1.867-2.52,4.177-5.039,6.93
		c-2.147,2.311-3.482,4.136-4.008,5.478c-0.524,1.342-0.822,3.669-0.893,6.982H54.252z M53.903,82.778v-7.175h5.88v7.175H53.903z"/>
</g>
</svg>
