<?xml version="1.0" encoding="utf-8"?>
<!-- Generator: Adobe Illustrator 16.0.3, SVG Export Plug-In . SVG Version: 6.00 Build 0)  -->
<!DOCTYPE svg PUBLIC "-//W3C//DTD SVG 1.1//EN" "http://www.w3.org/Graphics/SVG/1.1/DTD/svg11.dtd">
<svg version="1.1" id="Layer_1" xmlns="http://www.w3.org/2000/svg" xmlns:xlink="http://www.w3.org/1999/xlink" x="0px" y="0px"
	 width="50px" height="50px" viewBox="0 0 50 50" enable-background="new 0 0 50 50" xml:space="preserve">
<path fill="#F9A602" d="M29.164,23.315c-0.438-0.383-0.882-0.759-1.318-1.145c-3.855-3.421-7.186-7.272-9.645-11.833
	c-0.424-0.786-0.917-1.546-1.146-2.426c-0.302-1.152-0.353-2.304,0.098-3.43c0.478-1.187,1.442-1.623,2.678-1.305
	c1.394,0.358,2.404,1.229,3.278,2.312c1.034,1.284,1.909,2.681,2.835,4.041c2.122,3.116,4.268,6.219,6.409,9.322
	c0.285,0.41,0.607,0.794,0.912,1.189c0.023-0.015,0.046-0.028,0.068-0.041c-0.2-0.415-0.386-0.837-0.603-1.241
	c-0.68-1.251-1.559-2.365-2.4-3.505c-0.776-1.055-1.59-2.094-2.02-3.351c-0.361-1.048-0.673-2.114-0.932-3.189
	c-0.248-1.022-0.441-2.065-0.584-3.109c-0.162-1.15-0.222-2.31,0.16-3.44c0.251-0.754,0.674-1.36,1.521-1.5
	c0.587-0.099,1.151,0.029,1.674,0.316c0.955,0.523,1.586,1.339,2.061,2.29c0.632,1.258,1.024,2.598,1.378,3.952
	c1.039,3.951,2.082,7.9,3.121,11.849c0.016,0.051,0.036,0.099,0.088,0.145c-0.019-0.234-0.03-0.467-0.05-0.701
	c-0.068-0.873-0.174-1.746-0.205-2.618c-0.048-1.378-0.072-2.758-0.065-4.14c0-0.968,0.146-1.926,0.459-2.849
	c0.229-0.672,0.553-1.286,1.151-1.718c0.658-0.477,1.5-0.457,2.136,0.058c0.645,0.523,0.995,1.231,1.18,2.014
	c0.114,0.484,0.181,0.99,0.181,1.487c0.017,4.265,0.003,8.53,0.027,12.795c0.005,0.888,0.115,1.777,0.209,2.664
	c0.109,1.065,0.252,2.13,0.376,3.194c0.124,1.074,0.265,2.147,0.352,3.224c0.104,1.261,0.125,2.525,0.022,3.792
	c-0.137,1.682-0.514,3.301-1.216,4.837c-0.744,1.637-1.806,3.049-3.08,4.312c-0.284,0.284-0.532,0.605-0.813,0.895
	c-0.973,1.009-2.174,1.655-3.488,2.102c-1.494,0.509-3.041,0.726-4.614,0.789c-1.505,0.06-3.001-0.034-4.492-0.229
	c-3.194-0.426-6.26-1.294-9.156-2.717c-1.281-0.631-2.513-1.362-3.519-2.392c-0.782-0.798-1.521-1.646-2.234-2.508
	c-0.578-0.698-0.898-1.533-1.159-2.405c-0.41-1.366-0.917-2.703-1.354-4.063c-0.202-0.627-0.343-1.273-0.497-1.915
	c-0.023-0.102-0.005-0.228,0.036-0.323c0.319-0.757,0.938-1.145,1.706-1.302c1.438-0.295,2.669,0.155,3.744,1.109
	c0.331,0.291,0.669,0.578,1.001,0.869c1.144,1.004,1.896,2.271,2.448,3.67c0.093,0.233,0.142,0.551,0.317,0.664
	c0.197,0.126,0.515,0.075,0.779,0.088c0.664,0.022,1.328,0.034,1.99,0.046c0.794,0.012,1.579,0.091,2.336,0.351
	c0.064,0.024,0.171,0.003,0.224-0.04c1.2-0.955,2.181-2.082,2.749-3.525c0.263-0.673,0.414-1.368,0.434-2.089
	c0.013-0.467,0.056-0.931,0.04-1.395c-0.022-0.628-0.306-1.132-0.765-1.574c-0.587-0.564-1.119-1.183-1.684-1.769
	c-0.331-0.345-0.672-0.681-1.025-1.005c-0.184-0.168-0.405-0.19-0.66-0.116c-0.814,0.239-1.653,0.333-2.5,0.362
	c-0.716,0.025-1.433,0.04-2.149,0.08c-0.119,0.007-0.261,0.081-0.346,0.169c-0.917,0.93-1.912,1.749-3.119,2.277
	c-1.114,0.488-2.257,0.682-3.442,0.306c-0.293-0.095-0.567-0.254-0.845-0.391c-0.562-0.28-0.683-0.777-0.647-1.345
	c0.058-0.929,0.426-1.757,0.884-2.541c1.152-1.972,2.639-3.629,4.561-4.889c0.622-0.406,1.313-0.542,2.016-0.664
	c0.967-0.166,1.935-0.34,2.907-0.443c1.162-0.124,2.331-0.134,3.493,0.021c0.578,0.076,1.155,0.179,1.731,0.282
	c0.109,0.018,0.217,0.067,0.316,0.122c1.829,1.036,3.652,2.073,5.481,3.109c0.063,0.037,0.128,0.07,0.192,0.104
	C29.157,23.331,29.161,23.324,29.164,23.315z"/>
</svg>
