<?xml version="1.0" encoding="utf-8"?>
<!-- Generator: Adobe Illustrator 16.0.3, SVG Export Plug-In . SVG Version: 6.00 Build 0)  -->
<!DOCTYPE svg PUBLIC "-//W3C//DTD SVG 1.1//EN" "http://www.w3.org/Graphics/SVG/1.1/DTD/svg11.dtd">
<svg version="1.1" id="Layer_1" xmlns="http://www.w3.org/2000/svg" xmlns:xlink="http://www.w3.org/1999/xlink" x="0px" y="0px"
	 width="50px" height="50px" viewBox="0 0 50 50" enable-background="new 0 0 50 50" xml:space="preserve">
<path fill="#333535" stroke="#FFFFFF" d="M44.021,8.742v23.299c0,4.412-3.574,7.986-7.988,7.986h-6.577l-2.535,4.388l-2.537,4.394
	l-2.529-4.394l-2.536-4.388h-6.583c-4.407,0-7.988-3.574-7.988-7.986V8.742c0-4.414,3.581-7.988,7.988-7.988h23.298
	C40.447,0.754,44.021,4.329,44.021,8.742z"/>
<path fill="#FFFFFF" d="M25.148,33.565c-0.509,0-1.018,0-1.526,0c-0.345-0.048-0.693-0.085-1.036-0.146
	c-5.346-0.956-8.989-3.944-10.746-9.111c-0.347-1.02-0.449-2.124-0.664-3.188c0-0.509,0-1.018,0-1.527
	c0.048-0.343,0.085-0.69,0.146-1.031c0.955-5.346,3.94-8.992,9.107-10.749c1.021-0.347,2.126-0.45,3.193-0.666
	c0.508,0,1.018,0,1.526,0c0.345,0.048,0.691,0.085,1.035,0.146c5.347,0.956,8.99,3.944,10.745,9.111
	c0.348,1.02,0.45,2.124,0.665,3.188c0,0.509,0,1.018,0,1.527c-0.048,0.343-0.085,0.69-0.146,1.031
	c-0.954,5.345-3.941,8.992-9.107,10.749C27.319,33.246,26.214,33.35,25.148,33.565z M32.638,26.692
	c3.157-3.93,3.035-10.203-1.274-14.093c-4.063-3.665-9.889-3.343-13.302-0.485C22.913,16.966,27.766,21.82,32.638,26.692z
	 M16.121,14.042c-3.075,3.78-3.039,9.944,1.063,13.862c3.993,3.813,9.955,3.656,13.51,0.712
	C25.847,23.767,20.995,18.916,16.121,14.042z"/>
</svg>
