<?xml version="1.0" encoding="utf-8"?>
<!-- Generator: Adobe Illustrator 16.0.3, SVG Export Plug-In . SVG Version: 6.00 Build 0)  -->
<!DOCTYPE svg PUBLIC "-//W3C//DTD SVG 1.1//EN" "http://www.w3.org/Graphics/SVG/1.1/DTD/svg11.dtd">
<svg version="1.1" id="Layer_1" xmlns="http://www.w3.org/2000/svg" xmlns:xlink="http://www.w3.org/1999/xlink" x="0px" y="0px"
	 width="50px" height="50px" viewBox="0 0 50 50" enable-background="new 0 0 50 50" xml:space="preserve">
<g>
	<path fill-rule="evenodd" clip-rule="evenodd" fill="#C23D27" stroke="#FFFFFF" d="M44.744,8.874v23.425
		c0,4.438-3.594,8.03-8.031,8.03h-6.612l-2.551,4.413L25,49.158l-2.543-4.416l-2.55-4.413h-6.619c-4.431,0-8.032-3.593-8.032-8.03
		V8.874c0-4.438,3.601-8.032,8.032-8.032h23.425C41.15,0.842,44.744,4.436,44.744,8.874z"/>
	<g>
		<path fill-rule="evenodd" clip-rule="evenodd" fill="#FFFFFF" d="M19.917,25.082c-1.5,0-2.804-0.103-4.086,0.022
			c-2.047,0.198-4-2.225-2.686-4.681c0.189-0.355,0.21-0.808,0.284-1.219c0.14-0.763,0.263-1.526,0.386-2.291
			c0.043-0.268,0.067-0.539,0.11-0.807c0.097-0.619,0.151-1.25,0.309-1.851c0.199-0.743,0.547-1.449,0.715-2.196
			c0.344-1.534,1.505-2.523,3.313-2.629c2.493-0.145,4.941,0.09,7.322,0.926c1.132,0.397,2.324,0.629,3.446,1.052
			c0.351,0.133,0.798,0.633,0.805,0.973c0.061,3.243,0.054,6.486,0.005,9.731c-0.004,0.311-0.38,0.669-0.661,0.913
			c-0.444,0.384-1.039,0.616-1.425,1.044c-1.128,1.249-2.202,2.549-3.256,3.861c-0.269,0.334-0.432,0.774-0.562,1.189
			c-0.171,0.542-0.274,1.109-0.382,1.67c-0.261,1.33-0.851,2.072-1.707,2.107c-1.438,0.065-2.705-0.73-3.03-1.976
			c-0.374-1.419-0.352-2.825,0.331-4.174C19.385,26.272,19.595,25.78,19.917,25.082z"/>
		<path fill-rule="evenodd" clip-rule="evenodd" fill="#FFFFFF" d="M30.965,17.171c0-1.525,0.018-3.049-0.007-4.574
			c-0.015-0.894,0.41-1.272,1.268-1.267c1.271,0.007,2.541,0.017,3.812-0.003c0.842-0.012,1.239,0.416,1.241,1.214
			c0.011,3.111,0.004,6.224,0.006,9.337c0.001,0.835-0.452,1.217-1.245,1.226c-1.271,0.015-2.541,0-3.811,0.007
			c-0.859,0.003-1.282-0.382-1.27-1.273C30.98,20.284,30.965,18.728,30.965,17.171z M34.626,13.096
			c-0.145-0.004-0.29-0.011-0.435-0.016c-0.29,0.385-0.838,0.799-0.799,1.146c0.045,0.385,0.583,0.905,0.985,0.992
			c0.253,0.055,0.889-0.556,0.926-0.91C35.341,13.931,34.874,13.504,34.626,13.096z"/>
	</g>
</g>
</svg>
