<?xml version="1.0" encoding="utf-8"?>
<!-- Generator: Adobe Illustrator 16.0.3, SVG Export Plug-In . SVG Version: 6.00 Build 0)  -->
<!DOCTYPE svg PUBLIC "-//W3C//DTD SVG 1.1//EN" "http://www.w3.org/Graphics/SVG/1.1/DTD/svg11.dtd">
<svg version="1.1" id="Layer_1" xmlns="http://www.w3.org/2000/svg" xmlns:xlink="http://www.w3.org/1999/xlink" x="0px" y="0px"
	 width="50px" height="50px" viewBox="0 0 50 50" enable-background="new 0 0 50 50" xml:space="preserve">
<g>
	<path fill-rule="evenodd" clip-rule="evenodd" fill="#057A70" stroke="#FFFFFF" d="M44.021,8.742v23.299
		c0,4.412-3.574,7.987-7.988,7.987h-6.577l-2.535,4.387l-2.537,4.394l-2.529-4.394l-2.536-4.387h-6.583
		c-4.407,0-7.988-3.575-7.988-7.987V8.742c0-4.414,3.581-7.988,7.988-7.988h23.298C40.447,0.754,44.021,4.329,44.021,8.742z"/>
	<g>
		<path fill-rule="evenodd" clip-rule="evenodd" fill="#FFFFFF" d="M29.44,15.701c1.491,0,2.789,0.102,4.063-0.023
			c2.036-0.197,3.979,2.213,2.671,4.655c-0.188,0.354-0.209,0.804-0.283,1.213c-0.137,0.758-0.259,1.519-0.382,2.278
			c-0.044,0.267-0.068,0.537-0.109,0.803c-0.097,0.615-0.152,1.242-0.309,1.841c-0.195,0.739-0.544,1.44-0.711,2.184
			c-0.341,1.525-1.496,2.51-3.294,2.613c-2.479,0.146-4.915-0.087-7.282-0.92c-1.126-0.395-2.311-0.625-3.428-1.046
			c-0.35-0.131-0.794-0.629-0.8-0.967c-0.061-3.225-0.054-6.453-0.006-9.679c0.005-0.31,0.378-0.666,0.659-0.908
			c0.442-0.383,1.034-0.614,1.417-1.039c1.121-1.243,2.189-2.536,3.238-3.841c0.267-0.332,0.43-0.771,0.56-1.185
			c0.169-0.539,0.271-1.102,0.379-1.659c0.258-1.324,0.847-2.061,1.696-2.098c1.433-0.063,2.69,0.727,3.017,1.965
			c0.371,1.412,0.349,2.812-0.33,4.153C29.968,14.517,29.76,15.006,29.44,15.701z"/>
		<path fill-rule="evenodd" clip-rule="evenodd" fill="#FFFFFF" d="M18.452,23.568c0,1.518-0.018,3.032,0.007,4.549
			c0.015,0.889-0.409,1.266-1.262,1.26c-1.263-0.006-2.527-0.016-3.791,0.003c-0.837,0.011-1.232-0.414-1.235-1.207
			c-0.01-3.095-0.003-6.19-0.005-9.287c0-0.831,0.45-1.21,1.238-1.22c1.263-0.014,2.527,0,3.79-0.006
			c0.854-0.003,1.276,0.38,1.264,1.266C18.436,20.473,18.452,22.021,18.452,23.568z M14.811,27.621
			c0.144,0.005,0.289,0.012,0.433,0.017c0.287-0.383,0.833-0.795,0.793-1.141c-0.043-0.383-0.578-0.9-0.979-0.986
			c-0.251-0.054-0.885,0.553-0.921,0.904C14.099,26.792,14.565,27.216,14.811,27.621z"/>
	</g>
</g>
</svg>
